<svg width="350" height="350" version="1.1" xmlns="http://www.w3.org/2000/svg" xmlns:xlink="http://www.w3.org/1999/xlink"><svg><rect x="0" y="0" width="350" height="350" style="fill:#fff;shape-rendering:crispEdges;"></rect><path x="0" y="0" style="fill:#000;shape-rendering:crispEdges;" d="M8.14,8.14 V16.28 H16.28 V8.14 H8.14 Z M16.28,8.14 V16.28 H24.42 V8.14 H16.28 Z M24.42,8.14 V16.28 H32.56 V8.14 H24.42 Z M32.56,8.14 V16.28 H40.70 V8.14 H32.56 Z M40.70,8.14 V16.28 H48.84 V8.14 H40.70 Z M48.84,8.14 V16.28 H56.98 V8.14 H48.84 Z M56.98,8.14 V16.28 H65.12 V8.14 H56.98 Z M97.67,8.14 V16.28 H105.81 V8.14 H97.67 Z M105.81,8.14 V16.28 H113.95 V8.14 H105.81 Z M113.95,8.14 V16.28 H122.09 V8.14 H113.95 Z M138.37,8.14 V16.28 H146.51 V8.14 H138.37 Z M146.51,8.14 V16.28 H154.65 V8.14 H146.51 Z M154.65,8.14 V16.28 H162.79 V8.14 H154.65 Z M162.79,8.14 V16.28 H170.93 V8.14 H162.79 Z M187.21,8.14 V16.28 H195.35 V8.14 H187.21 Z M195.35,8.14 V16.28 H203.49 V8.14 H195.35 Z M203.49,8.14 V16.28 H211.63 V8.14 H203.49 Z M211.63,8.14 V16.28 H219.77 V8.14 H211.63 Z M219.77,8.14 V16.28 H227.91 V8.14 H219.77 Z M227.91,8.14 V16.28 H236.05 V8.14 H227.91 Z M252.33,8.14 V16.28 H260.47 V8.14 H252.33 Z M268.60,8.14 V16.28 H276.74 V8.14 H268.60 Z M284.88,8.14 V16.28 H293.02 V8.14 H284.88 Z M293.02,8.14 V16.28 H301.16 V8.14 H293.02 Z M301.16,8.14 V16.28 H309.30 V8.14 H301.16 Z M309.30,8.14 V16.28 H317.44 V8.14 H309.30 Z M317.44,8.14 V16.28 H325.58 V8.14 H317.44 Z M325.58,8.14 V16.28 H333.72 V8.14 H325.58 Z M333.72,8.14 V16.28 H341.86 V8.14 H333.72 Z M8.14,16.28 V24.42 H16.28 V16.28 H8.14 Z M56.98,16.28 V24.42 H65.12 V16.28 H56.98 Z M73.26,16.28 V24.42 H81.40 V16.28 H73.26 Z M81.40,16.28 V24.42 H89.53 V16.28 H81.40 Z M97.67,16.28 V24.42 H105.81 V16.28 H97.67 Z M113.95,16.28 V24.42 H122.09 V16.28 H113.95 Z M122.09,16.28 V24.42 H130.23 V16.28 H122.09 Z M146.51,16.28 V24.42 H154.65 V16.28 H146.51 Z M170.93,16.28 V24.42 H179.07 V16.28 H170.93 Z M179.07,16.28 V24.42 H187.21 V16.28 H179.07 Z M187.21,16.28 V24.42 H195.35 V16.28 H187.21 Z M195.35,16.28 V24.42 H203.49 V16.28 H195.35 Z M219.77,16.28 V24.42 H227.91 V16.28 H219.77 Z M284.88,16.28 V24.42 H293.02 V16.28 H284.88 Z M333.72,16.28 V24.42 H341.86 V16.28 H333.72 Z M8.14,24.42 V32.56 H16.28 V24.42 H8.14 Z M24.42,24.42 V32.56 H32.56 V24.42 H24.42 Z M32.56,24.42 V32.56 H40.70 V24.42 H32.56 Z M40.70,24.42 V32.56 H48.84 V24.42 H40.70 Z M56.98,24.42 V32.56 H65.12 V24.42 H56.98 Z M81.40,24.42 V32.56 H89.53 V24.42 H81.40 Z M105.81,24.42 V32.56 H113.95 V24.42 H105.81 Z M130.23,24.42 V32.56 H138.37 V24.42 H130.23 Z M146.51,24.42 V32.56 H154.65 V24.42 H146.51 Z M154.65,24.42 V32.56 H162.79 V24.42 H154.65 Z M170.93,24.42 V32.56 H179.07 V24.42 H170.93 Z M195.35,24.42 V32.56 H203.49 V24.42 H195.35 Z M203.49,24.42 V32.56 H211.63 V24.42 H203.49 Z M211.63,24.42 V32.56 H219.77 V24.42 H211.63 Z M219.77,24.42 V32.56 H227.91 V24.42 H219.77 Z M244.19,24.42 V32.56 H252.33 V24.42 H244.19 Z M252.33,24.42 V32.56 H260.47 V24.42 H252.33 Z M260.47,24.42 V32.56 H268.60 V24.42 H260.47 Z M284.88,24.42 V32.56 H293.02 V24.42 H284.88 Z M301.16,24.42 V32.56 H309.30 V24.42 H301.16 Z M309.30,24.42 V32.56 H317.44 V24.42 H309.30 Z M317.44,24.42 V32.56 H325.58 V24.42 H317.44 Z M333.72,24.42 V32.56 H341.86 V24.42 H333.72 Z M8.14,32.56 V40.70 H16.28 V32.56 H8.14 Z M24.42,32.56 V40.70 H32.56 V32.56 H24.42 Z M32.56,32.56 V40.70 H40.70 V32.56 H32.56 Z M40.70,32.56 V40.70 H48.84 V32.56 H40.70 Z M56.98,32.56 V40.70 H65.12 V32.56 H56.98 Z M73.26,32.56 V40.70 H81.40 V32.56 H73.26 Z M89.53,32.56 V40.70 H97.67 V32.56 H89.53 Z M113.95,32.56 V40.70 H122.09 V32.56 H113.95 Z M138.37,32.56 V40.70 H146.51 V32.56 H138.37 Z M146.51,32.56 V40.70 H154.65 V32.56 H146.51 Z M179.07,32.56 V40.70 H187.21 V32.56 H179.07 Z M195.35,32.56 V40.70 H203.49 V32.56 H195.35 Z M203.49,32.56 V40.70 H211.63 V32.56 H203.49 Z M219.77,32.56 V40.70 H227.91 V32.56 H219.77 Z M244.19,32.56 V40.70 H252.33 V32.56 H244.19 Z M252.33,32.56 V40.70 H260.47 V32.56 H252.33 Z M260.47,32.56 V40.70 H268.60 V32.56 H260.47 Z M284.88,32.56 V40.70 H293.02 V32.56 H284.88 Z M301.16,32.56 V40.70 H309.30 V32.56 H301.16 Z M309.30,32.56 V40.70 H317.44 V32.56 H309.30 Z M317.44,32.56 V40.70 H325.58 V32.56 H317.44 Z M333.72,32.56 V40.70 H341.86 V32.56 H333.72 Z M8.14,40.70 V48.84 H16.28 V40.70 H8.14 Z M24.42,40.70 V48.84 H32.56 V40.70 H24.42 Z M32.56,40.70 V48.84 H40.70 V40.70 H32.56 Z M40.70,40.70 V48.84 H48.84 V40.70 H40.70 Z M56.98,40.70 V48.84 H65.12 V40.70 H56.98 Z M89.53,40.70 V48.84 H97.67 V40.70 H89.53 Z M97.67,40.70 V48.84 H105.81 V40.70 H97.67 Z M138.37,40.70 V48.84 H146.51 V40.70 H138.37 Z M154.65,40.70 V48.84 H162.79 V40.70 H154.65 Z M187.21,40.70 V48.84 H195.35 V40.70 H187.21 Z M211.63,40.70 V48.84 H219.77 V40.70 H211.63 Z M260.47,40.70 V48.84 H268.60 V40.70 H260.47 Z M268.60,40.70 V48.84 H276.74 V40.70 H268.60 Z M284.88,40.70 V48.84 H293.02 V40.70 H284.88 Z M301.16,40.70 V48.84 H309.30 V40.70 H301.16 Z M309.30,40.70 V48.84 H317.44 V40.70 H309.30 Z M317.44,40.70 V48.84 H325.58 V40.70 H317.44 Z M333.72,40.70 V48.84 H341.86 V40.70 H333.72 Z M8.14,48.84 V56.98 H16.28 V48.84 H8.14 Z M56.98,48.84 V56.98 H65.12 V48.84 H56.98 Z M73.26,48.84 V56.98 H81.40 V48.84 H73.26 Z M81.40,48.84 V56.98 H89.53 V48.84 H81.40 Z M105.81,48.84 V56.98 H113.95 V48.84 H105.81 Z M122.09,48.84 V56.98 H130.23 V48.84 H122.09 Z M130.23,48.84 V56.98 H138.37 V48.84 H130.23 Z M146.51,48.84 V56.98 H154.65 V48.84 H146.51 Z M154.65,48.84 V56.98 H162.79 V48.84 H154.65 Z M170.93,48.84 V56.98 H179.07 V48.84 H170.93 Z M187.21,48.84 V56.98 H195.35 V48.84 H187.21 Z M203.49,48.84 V56.98 H211.63 V48.84 H203.49 Z M227.91,48.84 V56.98 H236.05 V48.84 H227.91 Z M252.33,48.84 V56.98 H260.47 V48.84 H252.33 Z M284.88,48.84 V56.98 H293.02 V48.84 H284.88 Z M333.72,48.84 V56.98 H341.86 V48.84 H333.72 Z M8.14,56.98 V65.12 H16.28 V56.98 H8.14 Z M16.28,56.98 V65.12 H24.42 V56.98 H16.28 Z M24.42,56.98 V65.12 H32.56 V56.98 H24.42 Z M32.56,56.98 V65.12 H40.70 V56.98 H32.56 Z M40.70,56.98 V65.12 H48.84 V56.98 H40.70 Z M48.84,56.98 V65.12 H56.98 V56.98 H48.84 Z M56.98,56.98 V65.12 H65.12 V56.98 H56.98 Z M73.26,56.98 V65.12 H81.40 V56.98 H73.26 Z M89.53,56.98 V65.12 H97.67 V56.98 H89.53 Z M105.81,56.98 V65.12 H113.95 V56.98 H105.81 Z M122.09,56.98 V65.12 H130.23 V56.98 H122.09 Z M138.37,56.98 V65.12 H146.51 V56.98 H138.37 Z M154.65,56.98 V65.12 H162.79 V56.98 H154.65 Z M170.93,56.98 V65.12 H179.07 V56.98 H170.93 Z M187.21,56.98 V65.12 H195.35 V56.98 H187.21 Z M203.49,56.98 V65.12 H211.63 V56.98 H203.49 Z M219.77,56.98 V65.12 H227.91 V56.98 H219.77 Z M236.05,56.98 V65.12 H244.19 V56.98 H236.05 Z M252.33,56.98 V65.12 H260.47 V56.98 H252.33 Z M268.60,56.98 V65.12 H276.74 V56.98 H268.60 Z M284.88,56.98 V65.12 H293.02 V56.98 H284.88 Z M293.02,56.98 V65.12 H301.16 V56.98 H293.02 Z M301.16,56.98 V65.12 H309.30 V56.98 H301.16 Z M309.30,56.98 V65.12 H317.44 V56.98 H309.30 Z M317.44,56.98 V65.12 H325.58 V56.98 H317.44 Z M325.58,56.98 V65.12 H333.72 V56.98 H325.58 Z M333.72,56.98 V65.12 H341.86 V56.98 H333.72 Z M73.26,65.12 V73.26 H81.40 V65.12 H73.26 Z M89.53,65.12 V73.26 H97.67 V65.12 H89.53 Z M122.09,65.12 V73.26 H130.23 V65.12 H122.09 Z M138.37,65.12 V73.26 H146.51 V65.12 H138.37 Z M154.65,65.12 V73.26 H162.79 V65.12 H154.65 Z M179.07,65.12 V73.26 H187.21 V65.12 H179.07 Z M244.19,65.12 V73.26 H252.33 V65.12 H244.19 Z M8.14,73.26 V81.40 H16.28 V73.26 H8.14 Z M24.42,73.26 V81.40 H32.56 V73.26 H24.42 Z M32.56,73.26 V81.40 H40.70 V73.26 H32.56 Z M48.84,73.26 V81.40 H56.98 V73.26 H48.84 Z M56.98,73.26 V81.40 H65.12 V73.26 H56.98 Z M65.12,73.26 V81.40 H73.26 V73.26 H65.12 Z M73.26,73.26 V81.40 H81.40 V73.26 H73.26 Z M81.40,73.26 V81.40 H89.53 V73.26 H81.40 Z M89.53,73.26 V81.40 H97.67 V73.26 H89.53 Z M105.81,73.26 V81.40 H113.95 V73.26 H105.81 Z M113.95,73.26 V81.40 H122.09 V73.26 H113.95 Z M122.09,73.26 V81.40 H130.23 V73.26 H122.09 Z M130.23,73.26 V81.40 H138.37 V73.26 H130.23 Z M138.37,73.26 V81.40 H146.51 V73.26 H138.37 Z M203.49,73.26 V81.40 H211.63 V73.26 H203.49 Z M211.63,73.26 V81.40 H219.77 V73.26 H211.63 Z M227.91,73.26 V81.40 H236.05 V73.26 H227.91 Z M236.05,73.26 V81.40 H244.19 V73.26 H236.05 Z M244.19,73.26 V81.40 H252.33 V73.26 H244.19 Z M252.33,73.26 V81.40 H260.47 V73.26 H252.33 Z M260.47,73.26 V81.40 H268.60 V73.26 H260.47 Z M276.74,73.26 V81.40 H284.88 V73.26 H276.74 Z M284.88,73.26 V81.40 H293.02 V73.26 H284.88 Z M293.02,73.26 V81.40 H301.16 V73.26 H293.02 Z M309.30,73.26 V81.40 H317.44 V73.26 H309.30 Z M325.58,73.26 V81.40 H333.72 V73.26 H325.58 Z M8.14,81.40 V89.53 H16.28 V81.40 H8.14 Z M24.42,81.40 V89.53 H32.56 V81.40 H24.42 Z M65.12,81.40 V89.53 H73.26 V81.40 H65.12 Z M73.26,81.40 V89.53 H81.40 V81.40 H73.26 Z M81.40,81.40 V89.53 H89.53 V81.40 H81.40 Z M97.67,81.40 V89.53 H105.81 V81.40 H97.67 Z M105.81,81.40 V89.53 H113.95 V81.40 H105.81 Z M113.95,81.40 V89.53 H122.09 V81.40 H113.95 Z M122.09,81.40 V89.53 H130.23 V81.40 H122.09 Z M154.65,81.40 V89.53 H162.79 V81.40 H154.65 Z M162.79,81.40 V89.53 H170.93 V81.40 H162.79 Z M170.93,81.40 V89.53 H179.07 V81.40 H170.93 Z M179.07,81.40 V89.53 H187.21 V81.40 H179.07 Z M195.35,81.40 V89.53 H203.49 V81.40 H195.35 Z M211.63,81.40 V89.53 H219.77 V81.40 H211.63 Z M227.91,81.40 V89.53 H236.05 V81.40 H227.91 Z M236.05,81.40 V89.53 H244.19 V81.40 H236.05 Z M252.33,81.40 V89.53 H260.47 V81.40 H252.33 Z M260.47,81.40 V89.53 H268.60 V81.40 H260.47 Z M301.16,81.40 V89.53 H309.30 V81.40 H301.16 Z M309.30,81.40 V89.53 H317.44 V81.40 H309.30 Z M317.44,81.40 V89.53 H325.58 V81.40 H317.44 Z M8.14,89.53 V97.67 H16.28 V89.53 H8.14 Z M16.28,89.53 V97.67 H24.42 V89.53 H16.28 Z M24.42,89.53 V97.67 H32.56 V89.53 H24.42 Z M48.84,89.53 V97.67 H56.98 V89.53 H48.84 Z M56.98,89.53 V97.67 H65.12 V89.53 H56.98 Z M73.26,89.53 V97.67 H81.40 V89.53 H73.26 Z M81.40,89.53 V97.67 H89.53 V89.53 H81.40 Z M89.53,89.53 V97.67 H97.67 V89.53 H89.53 Z M154.65,89.53 V97.67 H162.79 V89.53 H154.65 Z M162.79,89.53 V97.67 H170.93 V89.53 H162.79 Z M179.07,89.53 V97.67 H187.21 V89.53 H179.07 Z M187.21,89.53 V97.67 H195.35 V89.53 H187.21 Z M211.63,89.53 V97.67 H219.77 V89.53 H211.63 Z M219.77,89.53 V97.67 H227.91 V89.53 H219.77 Z M227.91,89.53 V97.67 H236.05 V89.53 H227.91 Z M260.47,89.53 V97.67 H268.60 V89.53 H260.47 Z M268.60,89.53 V97.67 H276.74 V89.53 H268.60 Z M284.88,89.53 V97.67 H293.02 V89.53 H284.88 Z M293.02,89.53 V97.67 H301.16 V89.53 H293.02 Z M301.16,89.53 V97.67 H309.30 V89.53 H301.16 Z M325.58,89.53 V97.67 H333.72 V89.53 H325.58 Z M333.72,89.53 V97.67 H341.86 V89.53 H333.72 Z M8.14,97.67 V105.81 H16.28 V97.67 H8.14 Z M24.42,97.67 V105.81 H32.56 V97.67 H24.42 Z M32.56,97.67 V105.81 H40.70 V97.67 H32.56 Z M48.84,97.67 V105.81 H56.98 V97.67 H48.84 Z M65.12,97.67 V105.81 H73.26 V97.67 H65.12 Z M89.53,97.67 V105.81 H97.67 V97.67 H89.53 Z M105.81,97.67 V105.81 H113.95 V97.67 H105.81 Z M122.09,97.67 V105.81 H130.23 V97.67 H122.09 Z M138.37,97.67 V105.81 H146.51 V97.67 H138.37 Z M170.93,97.67 V105.81 H179.07 V97.67 H170.93 Z M179.07,97.67 V105.81 H187.21 V97.67 H179.07 Z M236.05,97.67 V105.81 H244.19 V97.67 H236.05 Z M244.19,97.67 V105.81 H252.33 V97.67 H244.19 Z M260.47,97.67 V105.81 H268.60 V97.67 H260.47 Z M309.30,97.67 V105.81 H317.44 V97.67 H309.30 Z M317.44,97.67 V105.81 H325.58 V97.67 H317.44 Z M333.72,97.67 V105.81 H341.86 V97.67 H333.72 Z M8.14,105.81 V113.95 H16.28 V105.81 H8.14 Z M24.42,105.81 V113.95 H32.56 V105.81 H24.42 Z M48.84,105.81 V113.95 H56.98 V105.81 H48.84 Z M56.98,105.81 V113.95 H65.12 V105.81 H56.98 Z M65.12,105.81 V113.95 H73.26 V105.81 H65.12 Z M73.26,105.81 V113.95 H81.40 V105.81 H73.26 Z M89.53,105.81 V113.95 H97.67 V105.81 H89.53 Z M97.67,105.81 V113.95 H105.81 V105.81 H97.67 Z M122.09,105.81 V113.95 H130.23 V105.81 H122.09 Z M130.23,105.81 V113.95 H138.37 V105.81 H130.23 Z M146.51,105.81 V113.95 H154.65 V105.81 H146.51 Z M154.65,105.81 V113.95 H162.79 V105.81 H154.65 Z M162.79,105.81 V113.95 H170.93 V105.81 H162.79 Z M179.07,105.81 V113.95 H187.21 V105.81 H179.07 Z M187.21,105.81 V113.95 H195.35 V105.81 H187.21 Z M195.35,105.81 V113.95 H203.49 V105.81 H195.35 Z M211.63,105.81 V113.95 H219.77 V105.81 H211.63 Z M227.91,105.81 V113.95 H236.05 V105.81 H227.91 Z M236.05,105.81 V113.95 H244.19 V105.81 H236.05 Z M260.47,105.81 V113.95 H268.60 V105.81 H260.47 Z M309.30,105.81 V113.95 H317.44 V105.81 H309.30 Z M333.72,105.81 V113.95 H341.86 V105.81 H333.72 Z M16.28,113.95 V122.09 H24.42 V113.95 H16.28 Z M32.56,113.95 V122.09 H40.70 V113.95 H32.56 Z M65.12,113.95 V122.09 H73.26 V113.95 H65.12 Z M73.26,113.95 V122.09 H81.40 V113.95 H73.26 Z M89.53,113.95 V122.09 H97.67 V113.95 H89.53 Z M105.81,113.95 V122.09 H113.95 V113.95 H105.81 Z M113.95,113.95 V122.09 H122.09 V113.95 H113.95 Z M122.09,113.95 V122.09 H130.23 V113.95 H122.09 Z M146.51,113.95 V122.09 H154.65 V113.95 H146.51 Z M179.07,113.95 V122.09 H187.21 V113.95 H179.07 Z M211.63,113.95 V122.09 H219.77 V113.95 H211.63 Z M236.05,113.95 V122.09 H244.19 V113.95 H236.05 Z M252.33,113.95 V122.09 H260.47 V113.95 H252.33 Z M268.60,113.95 V122.09 H276.74 V113.95 H268.60 Z M276.74,113.95 V122.09 H284.88 V113.95 H276.74 Z M284.88,113.95 V122.09 H293.02 V113.95 H284.88 Z M293.02,113.95 V122.09 H301.16 V113.95 H293.02 Z M325.58,113.95 V122.09 H333.72 V113.95 H325.58 Z M8.14,122.09 V130.23 H16.28 V122.09 H8.14 Z M16.28,122.09 V130.23 H24.42 V122.09 H16.28 Z M24.42,122.09 V130.23 H32.56 V122.09 H24.42 Z M48.84,122.09 V130.23 H56.98 V122.09 H48.84 Z M56.98,122.09 V130.23 H65.12 V122.09 H56.98 Z M65.12,122.09 V130.23 H73.26 V122.09 H65.12 Z M81.40,122.09 V130.23 H89.53 V122.09 H81.40 Z M97.67,122.09 V130.23 H105.81 V122.09 H97.67 Z M113.95,122.09 V130.23 H122.09 V122.09 H113.95 Z M122.09,122.09 V130.23 H130.23 V122.09 H122.09 Z M130.23,122.09 V130.23 H138.37 V122.09 H130.23 Z M146.51,122.09 V130.23 H154.65 V122.09 H146.51 Z M170.93,122.09 V130.23 H179.07 V122.09 H170.93 Z M187.21,122.09 V130.23 H195.35 V122.09 H187.21 Z M195.35,122.09 V130.23 H203.49 V122.09 H195.35 Z M203.49,122.09 V130.23 H211.63 V122.09 H203.49 Z M219.77,122.09 V130.23 H227.91 V122.09 H219.77 Z M236.05,122.09 V130.23 H244.19 V122.09 H236.05 Z M252.33,122.09 V130.23 H260.47 V122.09 H252.33 Z M293.02,122.09 V130.23 H301.16 V122.09 H293.02 Z M325.58,122.09 V130.23 H333.72 V122.09 H325.58 Z M333.72,122.09 V130.23 H341.86 V122.09 H333.72 Z M8.14,130.23 V138.37 H16.28 V130.23 H8.14 Z M16.28,130.23 V138.37 H24.42 V130.23 H16.28 Z M24.42,130.23 V138.37 H32.56 V130.23 H24.42 Z M32.56,130.23 V138.37 H40.70 V130.23 H32.56 Z M40.70,130.23 V138.37 H48.84 V130.23 H40.70 Z M65.12,130.23 V138.37 H73.26 V130.23 H65.12 Z M81.40,130.23 V138.37 H89.53 V130.23 H81.40 Z M89.53,130.23 V138.37 H97.67 V130.23 H89.53 Z M97.67,130.23 V138.37 H105.81 V130.23 H97.67 Z M138.37,130.23 V138.37 H146.51 V130.23 H138.37 Z M179.07,130.23 V138.37 H187.21 V130.23 H179.07 Z M211.63,130.23 V138.37 H219.77 V130.23 H211.63 Z M227.91,130.23 V138.37 H236.05 V130.23 H227.91 Z M236.05,130.23 V138.37 H244.19 V130.23 H236.05 Z M252.33,130.23 V138.37 H260.47 V130.23 H252.33 Z M284.88,130.23 V138.37 H293.02 V130.23 H284.88 Z M293.02,130.23 V138.37 H301.16 V130.23 H293.02 Z M301.16,130.23 V138.37 H309.30 V130.23 H301.16 Z M309.30,130.23 V138.37 H317.44 V130.23 H309.30 Z M8.14,138.37 V146.51 H16.28 V138.37 H8.14 Z M32.56,138.37 V146.51 H40.70 V138.37 H32.56 Z M40.70,138.37 V146.51 H48.84 V138.37 H40.70 Z M56.98,138.37 V146.51 H65.12 V138.37 H56.98 Z M65.12,138.37 V146.51 H73.26 V138.37 H65.12 Z M73.26,138.37 V146.51 H81.40 V138.37 H73.26 Z M89.53,138.37 V146.51 H97.67 V138.37 H89.53 Z M97.67,138.37 V146.51 H105.81 V138.37 H97.67 Z M113.95,138.37 V146.51 H122.09 V138.37 H113.95 Z M179.07,138.37 V146.51 H187.21 V138.37 H179.07 Z M211.63,138.37 V146.51 H219.77 V138.37 H211.63 Z M219.77,138.37 V146.51 H227.91 V138.37 H219.77 Z M244.19,138.37 V146.51 H252.33 V138.37 H244.19 Z M260.47,138.37 V146.51 H268.60 V138.37 H260.47 Z M268.60,138.37 V146.51 H276.74 V138.37 H268.60 Z M284.88,138.37 V146.51 H293.02 V138.37 H284.88 Z M293.02,138.37 V146.51 H301.16 V138.37 H293.02 Z M301.16,138.37 V146.51 H309.30 V138.37 H301.16 Z M309.30,138.37 V146.51 H317.44 V138.37 H309.30 Z M317.44,138.37 V146.51 H325.58 V138.37 H317.44 Z M325.58,138.37 V146.51 H333.72 V138.37 H325.58 Z M333.72,138.37 V146.51 H341.86 V138.37 H333.72 Z M16.28,146.51 V154.65 H24.42 V146.51 H16.28 Z M32.56,146.51 V154.65 H40.70 V146.51 H32.56 Z M40.70,146.51 V154.65 H48.84 V146.51 H40.70 Z M48.84,146.51 V154.65 H56.98 V146.51 H48.84 Z M97.67,146.51 V154.65 H105.81 V146.51 H97.67 Z M105.81,146.51 V154.65 H113.95 V146.51 H105.81 Z M122.09,146.51 V154.65 H130.23 V146.51 H122.09 Z M130.23,146.51 V154.65 H138.37 V146.51 H130.23 Z M170.93,146.51 V154.65 H179.07 V146.51 H170.93 Z M179.07,146.51 V154.65 H187.21 V146.51 H179.07 Z M195.35,146.51 V154.65 H203.49 V146.51 H195.35 Z M293.02,146.51 V154.65 H301.16 V146.51 H293.02 Z M301.16,146.51 V154.65 H309.30 V146.51 H301.16 Z M309.30,146.51 V154.65 H317.44 V146.51 H309.30 Z M325.58,146.51 V154.65 H333.72 V146.51 H325.58 Z M333.72,146.51 V154.65 H341.86 V146.51 H333.72 Z M32.56,154.65 V162.79 H40.70 V154.65 H32.56 Z M48.84,154.65 V162.79 H56.98 V154.65 H48.84 Z M56.98,154.65 V162.79 H65.12 V154.65 H56.98 Z M81.40,154.65 V162.79 H89.53 V154.65 H81.40 Z M97.67,154.65 V162.79 H105.81 V154.65 H97.67 Z M105.81,154.65 V162.79 H113.95 V154.65 H105.81 Z M138.37,154.65 V162.79 H146.51 V154.65 H138.37 Z M146.51,154.65 V162.79 H154.65 V154.65 H146.51 Z M170.93,154.65 V162.79 H179.07 V154.65 H170.93 Z M179.07,154.65 V162.79 H187.21 V154.65 H179.07 Z M187.21,154.65 V162.79 H195.35 V154.65 H187.21 Z M195.35,154.65 V162.79 H203.49 V154.65 H195.35 Z M203.49,154.65 V162.79 H211.63 V154.65 H203.49 Z M219.77,154.65 V162.79 H227.91 V154.65 H219.77 Z M227.91,154.65 V162.79 H236.05 V154.65 H227.91 Z M268.60,154.65 V162.79 H276.74 V154.65 H268.60 Z M276.74,154.65 V162.79 H284.88 V154.65 H276.74 Z M309.30,154.65 V162.79 H317.44 V154.65 H309.30 Z M317.44,154.65 V162.79 H325.58 V154.65 H317.44 Z M325.58,154.65 V162.79 H333.72 V154.65 H325.58 Z M32.56,162.79 V170.93 H40.70 V162.79 H32.56 Z M40.70,162.79 V170.93 H48.84 V162.79 H40.70 Z M73.26,162.79 V170.93 H81.40 V162.79 H73.26 Z M81.40,162.79 V170.93 H89.53 V162.79 H81.40 Z M89.53,162.79 V170.93 H97.67 V162.79 H89.53 Z M105.81,162.79 V170.93 H113.95 V162.79 H105.81 Z M122.09,162.79 V170.93 H130.23 V162.79 H122.09 Z M130.23,162.79 V170.93 H138.37 V162.79 H130.23 Z M146.51,162.79 V170.93 H154.65 V162.79 H146.51 Z M162.79,162.79 V170.93 H170.93 V162.79 H162.79 Z M170.93,162.79 V170.93 H179.07 V162.79 H170.93 Z M179.07,162.79 V170.93 H187.21 V162.79 H179.07 Z M187.21,162.79 V170.93 H195.35 V162.79 H187.21 Z M195.35,162.79 V170.93 H203.49 V162.79 H195.35 Z M203.49,162.79 V170.93 H211.63 V162.79 H203.49 Z M227.91,162.79 V170.93 H236.05 V162.79 H227.91 Z M236.05,162.79 V170.93 H244.19 V162.79 H236.05 Z M260.47,162.79 V170.93 H268.60 V162.79 H260.47 Z M276.74,162.79 V170.93 H284.88 V162.79 H276.74 Z M284.88,162.79 V170.93 H293.02 V162.79 H284.88 Z M301.16,162.79 V170.93 H309.30 V162.79 H301.16 Z M333.72,162.79 V170.93 H341.86 V162.79 H333.72 Z M8.14,170.93 V179.07 H16.28 V170.93 H8.14 Z M16.28,170.93 V179.07 H24.42 V170.93 H16.28 Z M56.98,170.93 V179.07 H65.12 V170.93 H56.98 Z M65.12,170.93 V179.07 H73.26 V170.93 H65.12 Z M81.40,170.93 V179.07 H89.53 V170.93 H81.40 Z M97.67,170.93 V179.07 H105.81 V170.93 H97.67 Z M122.09,170.93 V179.07 H130.23 V170.93 H122.09 Z M130.23,170.93 V179.07 H138.37 V170.93 H130.23 Z M162.79,170.93 V179.07 H170.93 V170.93 H162.79 Z M219.77,170.93 V179.07 H227.91 V170.93 H219.77 Z M244.19,170.93 V179.07 H252.33 V170.93 H244.19 Z M252.33,170.93 V179.07 H260.47 V170.93 H252.33 Z M268.60,170.93 V179.07 H276.74 V170.93 H268.60 Z M293.02,170.93 V179.07 H301.16 V170.93 H293.02 Z M309.30,170.93 V179.07 H317.44 V170.93 H309.30 Z M317.44,170.93 V179.07 H325.58 V170.93 H317.44 Z M333.72,170.93 V179.07 H341.86 V170.93 H333.72 Z M8.14,179.07 V187.21 H16.28 V179.07 H8.14 Z M24.42,179.07 V187.21 H32.56 V179.07 H24.42 Z M81.40,179.07 V187.21 H89.53 V179.07 H81.40 Z M113.95,179.07 V187.21 H122.09 V179.07 H113.95 Z M130.23,179.07 V187.21 H138.37 V179.07 H130.23 Z M138.37,179.07 V187.21 H146.51 V179.07 H138.37 Z M146.51,179.07 V187.21 H154.65 V179.07 H146.51 Z M154.65,179.07 V187.21 H162.79 V179.07 H154.65 Z M162.79,179.07 V187.21 H170.93 V179.07 H162.79 Z M179.07,179.07 V187.21 H187.21 V179.07 H179.07 Z M195.35,179.07 V187.21 H203.49 V179.07 H195.35 Z M219.77,179.07 V187.21 H227.91 V179.07 H219.77 Z M227.91,179.07 V187.21 H236.05 V179.07 H227.91 Z M260.47,179.07 V187.21 H268.60 V179.07 H260.47 Z M276.74,179.07 V187.21 H284.88 V179.07 H276.74 Z M309.30,179.07 V187.21 H317.44 V179.07 H309.30 Z M317.44,179.07 V187.21 H325.58 V179.07 H317.44 Z M8.14,187.21 V195.35 H16.28 V187.21 H8.14 Z M24.42,187.21 V195.35 H32.56 V187.21 H24.42 Z M32.56,187.21 V195.35 H40.70 V187.21 H32.56 Z M48.84,187.21 V195.35 H56.98 V187.21 H48.84 Z M56.98,187.21 V195.35 H65.12 V187.21 H56.98 Z M65.12,187.21 V195.35 H73.26 V187.21 H65.12 Z M73.26,187.21 V195.35 H81.40 V187.21 H73.26 Z M89.53,187.21 V195.35 H97.67 V187.21 H89.53 Z M97.67,187.21 V195.35 H105.81 V187.21 H97.67 Z M130.23,187.21 V195.35 H138.37 V187.21 H130.23 Z M138.37,187.21 V195.35 H146.51 V187.21 H138.37 Z M203.49,187.21 V195.35 H211.63 V187.21 H203.49 Z M211.63,187.21 V195.35 H219.77 V187.21 H211.63 Z M219.77,187.21 V195.35 H227.91 V187.21 H219.77 Z M227.91,187.21 V195.35 H236.05 V187.21 H227.91 Z M244.19,187.21 V195.35 H252.33 V187.21 H244.19 Z M301.16,187.21 V195.35 H309.30 V187.21 H301.16 Z M309.30,187.21 V195.35 H317.44 V187.21 H309.30 Z M317.44,187.21 V195.35 H325.58 V187.21 H317.44 Z M16.28,195.35 V203.49 H24.42 V195.35 H16.28 Z M24.42,195.35 V203.49 H32.56 V195.35 H24.42 Z M32.56,195.35 V203.49 H40.70 V195.35 H32.56 Z M48.84,195.35 V203.49 H56.98 V195.35 H48.84 Z M65.12,195.35 V203.49 H73.26 V195.35 H65.12 Z M73.26,195.35 V203.49 H81.40 V195.35 H73.26 Z M89.53,195.35 V203.49 H97.67 V195.35 H89.53 Z M97.67,195.35 V203.49 H105.81 V195.35 H97.67 Z M105.81,195.35 V203.49 H113.95 V195.35 H105.81 Z M113.95,195.35 V203.49 H122.09 V195.35 H113.95 Z M122.09,195.35 V203.49 H130.23 V195.35 H122.09 Z M130.23,195.35 V203.49 H138.37 V195.35 H130.23 Z M146.51,195.35 V203.49 H154.65 V195.35 H146.51 Z M162.79,195.35 V203.49 H170.93 V195.35 H162.79 Z M170.93,195.35 V203.49 H179.07 V195.35 H170.93 Z M195.35,195.35 V203.49 H203.49 V195.35 H195.35 Z M203.49,195.35 V203.49 H211.63 V195.35 H203.49 Z M219.77,195.35 V203.49 H227.91 V195.35 H219.77 Z M236.05,195.35 V203.49 H244.19 V195.35 H236.05 Z M252.33,195.35 V203.49 H260.47 V195.35 H252.33 Z M276.74,195.35 V203.49 H284.88 V195.35 H276.74 Z M293.02,195.35 V203.49 H301.16 V195.35 H293.02 Z M317.44,195.35 V203.49 H325.58 V195.35 H317.44 Z M325.58,195.35 V203.49 H333.72 V195.35 H325.58 Z M24.42,203.49 V211.63 H32.56 V203.49 H24.42 Z M32.56,203.49 V211.63 H40.70 V203.49 H32.56 Z M40.70,203.49 V211.63 H48.84 V203.49 H40.70 Z M56.98,203.49 V211.63 H65.12 V203.49 H56.98 Z M73.26,203.49 V211.63 H81.40 V203.49 H73.26 Z M97.67,203.49 V211.63 H105.81 V203.49 H97.67 Z M146.51,203.49 V211.63 H154.65 V203.49 H146.51 Z M154.65,203.49 V211.63 H162.79 V203.49 H154.65 Z M170.93,203.49 V211.63 H179.07 V203.49 H170.93 Z M179.07,203.49 V211.63 H187.21 V203.49 H179.07 Z M195.35,203.49 V211.63 H203.49 V203.49 H195.35 Z M203.49,203.49 V211.63 H211.63 V203.49 H203.49 Z M211.63,203.49 V211.63 H219.77 V203.49 H211.63 Z M227.91,203.49 V211.63 H236.05 V203.49 H227.91 Z M236.05,203.49 V211.63 H244.19 V203.49 H236.05 Z M244.19,203.49 V211.63 H252.33 V203.49 H244.19 Z M252.33,203.49 V211.63 H260.47 V203.49 H252.33 Z M260.47,203.49 V211.63 H268.60 V203.49 H260.47 Z M276.74,203.49 V211.63 H284.88 V203.49 H276.74 Z M284.88,203.49 V211.63 H293.02 V203.49 H284.88 Z M301.16,203.49 V211.63 H309.30 V203.49 H301.16 Z M309.30,203.49 V211.63 H317.44 V203.49 H309.30 Z M317.44,203.49 V211.63 H325.58 V203.49 H317.44 Z M325.58,203.49 V211.63 H333.72 V203.49 H325.58 Z M333.72,203.49 V211.63 H341.86 V203.49 H333.72 Z M32.56,211.63 V219.77 H40.70 V211.63 H32.56 Z M40.70,211.63 V219.77 H48.84 V211.63 H40.70 Z M73.26,211.63 V219.77 H81.40 V211.63 H73.26 Z M81.40,211.63 V219.77 H89.53 V211.63 H81.40 Z M89.53,211.63 V219.77 H97.67 V211.63 H89.53 Z M97.67,211.63 V219.77 H105.81 V211.63 H97.67 Z M105.81,211.63 V219.77 H113.95 V211.63 H105.81 Z M113.95,211.63 V219.77 H122.09 V211.63 H113.95 Z M130.23,211.63 V219.77 H138.37 V211.63 H130.23 Z M154.65,211.63 V219.77 H162.79 V211.63 H154.65 Z M162.79,211.63 V219.77 H170.93 V211.63 H162.79 Z M195.35,211.63 V219.77 H203.49 V211.63 H195.35 Z M203.49,211.63 V219.77 H211.63 V211.63 H203.49 Z M211.63,211.63 V219.77 H219.77 V211.63 H211.63 Z M219.77,211.63 V219.77 H227.91 V211.63 H219.77 Z M227.91,211.63 V219.77 H236.05 V211.63 H227.91 Z M236.05,211.63 V219.77 H244.19 V211.63 H236.05 Z M244.19,211.63 V219.77 H252.33 V211.63 H244.19 Z M268.60,211.63 V219.77 H276.74 V211.63 H268.60 Z M276.74,211.63 V219.77 H284.88 V211.63 H276.74 Z M284.88,211.63 V219.77 H293.02 V211.63 H284.88 Z M293.02,211.63 V219.77 H301.16 V211.63 H293.02 Z M317.44,211.63 V219.77 H325.58 V211.63 H317.44 Z M325.58,211.63 V219.77 H333.72 V211.63 H325.58 Z M24.42,219.77 V227.91 H32.56 V219.77 H24.42 Z M48.84,219.77 V227.91 H56.98 V219.77 H48.84 Z M56.98,219.77 V227.91 H65.12 V219.77 H56.98 Z M89.53,219.77 V227.91 H97.67 V219.77 H89.53 Z M105.81,219.77 V227.91 H113.95 V219.77 H105.81 Z M130.23,219.77 V227.91 H138.37 V219.77 H130.23 Z M146.51,219.77 V227.91 H154.65 V219.77 H146.51 Z M170.93,219.77 V227.91 H179.07 V219.77 H170.93 Z M195.35,219.77 V227.91 H203.49 V219.77 H195.35 Z M219.77,219.77 V227.91 H227.91 V219.77 H219.77 Z M227.91,219.77 V227.91 H236.05 V219.77 H227.91 Z M244.19,219.77 V227.91 H252.33 V219.77 H244.19 Z M260.47,219.77 V227.91 H268.60 V219.77 H260.47 Z M268.60,219.77 V227.91 H276.74 V219.77 H268.60 Z M276.74,219.77 V227.91 H284.88 V219.77 H276.74 Z M284.88,219.77 V227.91 H293.02 V219.77 H284.88 Z M301.16,219.77 V227.91 H309.30 V219.77 H301.16 Z M309.30,219.77 V227.91 H317.44 V219.77 H309.30 Z M325.58,219.77 V227.91 H333.72 V219.77 H325.58 Z M8.14,227.91 V236.05 H16.28 V227.91 H8.14 Z M16.28,227.91 V236.05 H24.42 V227.91 H16.28 Z M32.56,227.91 V236.05 H40.70 V227.91 H32.56 Z M40.70,227.91 V236.05 H48.84 V227.91 H40.70 Z M48.84,227.91 V236.05 H56.98 V227.91 H48.84 Z M97.67,227.91 V236.05 H105.81 V227.91 H97.67 Z M113.95,227.91 V236.05 H122.09 V227.91 H113.95 Z M122.09,227.91 V236.05 H130.23 V227.91 H122.09 Z M138.37,227.91 V236.05 H146.51 V227.91 H138.37 Z M162.79,227.91 V236.05 H170.93 V227.91 H162.79 Z M170.93,227.91 V236.05 H179.07 V227.91 H170.93 Z M195.35,227.91 V236.05 H203.49 V227.91 H195.35 Z M227.91,227.91 V236.05 H236.05 V227.91 H227.91 Z M236.05,227.91 V236.05 H244.19 V227.91 H236.05 Z M244.19,227.91 V236.05 H252.33 V227.91 H244.19 Z M260.47,227.91 V236.05 H268.60 V227.91 H260.47 Z M276.74,227.91 V236.05 H284.88 V227.91 H276.74 Z M293.02,227.91 V236.05 H301.16 V227.91 H293.02 Z M301.16,227.91 V236.05 H309.30 V227.91 H301.16 Z M24.42,236.05 V244.19 H32.56 V236.05 H24.42 Z M32.56,236.05 V244.19 H40.70 V236.05 H32.56 Z M56.98,236.05 V244.19 H65.12 V236.05 H56.98 Z M65.12,236.05 V244.19 H73.26 V236.05 H65.12 Z M73.26,236.05 V244.19 H81.40 V236.05 H73.26 Z M81.40,236.05 V244.19 H89.53 V236.05 H81.40 Z M89.53,236.05 V244.19 H97.67 V236.05 H89.53 Z M97.67,236.05 V244.19 H105.81 V236.05 H97.67 Z M105.81,236.05 V244.19 H113.95 V236.05 H105.81 Z M122.09,236.05 V244.19 H130.23 V236.05 H122.09 Z M130.23,236.05 V244.19 H138.37 V236.05 H130.23 Z M146.51,236.05 V244.19 H154.65 V236.05 H146.51 Z M154.65,236.05 V244.19 H162.79 V236.05 H154.65 Z M195.35,236.05 V244.19 H203.49 V236.05 H195.35 Z M219.77,236.05 V244.19 H227.91 V236.05 H219.77 Z M236.05,236.05 V244.19 H244.19 V236.05 H236.05 Z M260.47,236.05 V244.19 H268.60 V236.05 H260.47 Z M268.60,236.05 V244.19 H276.74 V236.05 H268.60 Z M276.74,236.05 V244.19 H284.88 V236.05 H276.74 Z M284.88,236.05 V244.19 H293.02 V236.05 H284.88 Z M8.14,244.19 V252.33 H16.28 V244.19 H8.14 Z M24.42,244.19 V252.33 H32.56 V244.19 H24.42 Z M48.84,244.19 V252.33 H56.98 V244.19 H48.84 Z M65.12,244.19 V252.33 H73.26 V244.19 H65.12 Z M105.81,244.19 V252.33 H113.95 V244.19 H105.81 Z M113.95,244.19 V252.33 H122.09 V244.19 H113.95 Z M122.09,244.19 V252.33 H130.23 V244.19 H122.09 Z M130.23,244.19 V252.33 H138.37 V244.19 H130.23 Z M138.37,244.19 V252.33 H146.51 V244.19 H138.37 Z M146.51,244.19 V252.33 H154.65 V244.19 H146.51 Z M154.65,244.19 V252.33 H162.79 V244.19 H154.65 Z M162.79,244.19 V252.33 H170.93 V244.19 H162.79 Z M170.93,244.19 V252.33 H179.07 V244.19 H170.93 Z M203.49,244.19 V252.33 H211.63 V244.19 H203.49 Z M211.63,244.19 V252.33 H219.77 V244.19 H211.63 Z M227.91,244.19 V252.33 H236.05 V244.19 H227.91 Z M236.05,244.19 V252.33 H244.19 V244.19 H236.05 Z M260.47,244.19 V252.33 H268.60 V244.19 H260.47 Z M284.88,244.19 V252.33 H293.02 V244.19 H284.88 Z M293.02,244.19 V252.33 H301.16 V244.19 H293.02 Z M309.30,244.19 V252.33 H317.44 V244.19 H309.30 Z M317.44,244.19 V252.33 H325.58 V244.19 H317.44 Z M325.58,244.19 V252.33 H333.72 V244.19 H325.58 Z M333.72,244.19 V252.33 H341.86 V244.19 H333.72 Z M8.14,252.33 V260.47 H16.28 V252.33 H8.14 Z M16.28,252.33 V260.47 H24.42 V252.33 H16.28 Z M32.56,252.33 V260.47 H40.70 V252.33 H32.56 Z M40.70,252.33 V260.47 H48.84 V252.33 H40.70 Z M48.84,252.33 V260.47 H56.98 V252.33 H48.84 Z M56.98,252.33 V260.47 H65.12 V252.33 H56.98 Z M65.12,252.33 V260.47 H73.26 V252.33 H65.12 Z M89.53,252.33 V260.47 H97.67 V252.33 H89.53 Z M97.67,252.33 V260.47 H105.81 V252.33 H97.67 Z M113.95,252.33 V260.47 H122.09 V252.33 H113.95 Z M130.23,252.33 V260.47 H138.37 V252.33 H130.23 Z M146.51,252.33 V260.47 H154.65 V252.33 H146.51 Z M170.93,252.33 V260.47 H179.07 V252.33 H170.93 Z M187.21,252.33 V260.47 H195.35 V252.33 H187.21 Z M195.35,252.33 V260.47 H203.49 V252.33 H195.35 Z M211.63,252.33 V260.47 H219.77 V252.33 H211.63 Z M219.77,252.33 V260.47 H227.91 V252.33 H219.77 Z M244.19,252.33 V260.47 H252.33 V252.33 H244.19 Z M276.74,252.33 V260.47 H284.88 V252.33 H276.74 Z M8.14,260.47 V268.60 H16.28 V260.47 H8.14 Z M24.42,260.47 V268.60 H32.56 V260.47 H24.42 Z M32.56,260.47 V268.60 H40.70 V260.47 H32.56 Z M48.84,260.47 V268.60 H56.98 V260.47 H48.84 Z M65.12,260.47 V268.60 H73.26 V260.47 H65.12 Z M89.53,260.47 V268.60 H97.67 V260.47 H89.53 Z M105.81,260.47 V268.60 H113.95 V260.47 H105.81 Z M113.95,260.47 V268.60 H122.09 V260.47 H113.95 Z M130.23,260.47 V268.60 H138.37 V260.47 H130.23 Z M179.07,260.47 V268.60 H187.21 V260.47 H179.07 Z M187.21,260.47 V268.60 H195.35 V260.47 H187.21 Z M195.35,260.47 V268.60 H203.49 V260.47 H195.35 Z M211.63,260.47 V268.60 H219.77 V260.47 H211.63 Z M276.74,260.47 V268.60 H284.88 V260.47 H276.74 Z M309.30,260.47 V268.60 H317.44 V260.47 H309.30 Z M325.58,260.47 V268.60 H333.72 V260.47 H325.58 Z M24.42,268.60 V276.74 H32.56 V268.60 H24.42 Z M48.84,268.60 V276.74 H56.98 V268.60 H48.84 Z M56.98,268.60 V276.74 H65.12 V268.60 H56.98 Z M65.12,268.60 V276.74 H73.26 V268.60 H65.12 Z M81.40,268.60 V276.74 H89.53 V268.60 H81.40 Z M105.81,268.60 V276.74 H113.95 V268.60 H105.81 Z M113.95,268.60 V276.74 H122.09 V268.60 H113.95 Z M122.09,268.60 V276.74 H130.23 V268.60 H122.09 Z M138.37,268.60 V276.74 H146.51 V268.60 H138.37 Z M179.07,268.60 V276.74 H187.21 V268.60 H179.07 Z M203.49,268.60 V276.74 H211.63 V268.60 H203.49 Z M219.77,268.60 V276.74 H227.91 V268.60 H219.77 Z M227.91,268.60 V276.74 H236.05 V268.60 H227.91 Z M236.05,268.60 V276.74 H244.19 V268.60 H236.05 Z M252.33,268.60 V276.74 H260.47 V268.60 H252.33 Z M260.47,268.60 V276.74 H268.60 V268.60 H260.47 Z M268.60,268.60 V276.74 H276.74 V268.60 H268.60 Z M276.74,268.60 V276.74 H284.88 V268.60 H276.74 Z M284.88,268.60 V276.74 H293.02 V268.60 H284.88 Z M293.02,268.60 V276.74 H301.16 V268.60 H293.02 Z M301.16,268.60 V276.74 H309.30 V268.60 H301.16 Z M309.30,268.60 V276.74 H317.44 V268.60 H309.30 Z M325.58,268.60 V276.74 H333.72 V268.60 H325.58 Z M333.72,268.60 V276.74 H341.86 V268.60 H333.72 Z M73.26,276.74 V284.88 H81.40 V276.74 H73.26 Z M89.53,276.74 V284.88 H97.67 V276.74 H89.53 Z M97.67,276.74 V284.88 H105.81 V276.74 H97.67 Z M105.81,276.74 V284.88 H113.95 V276.74 H105.81 Z M113.95,276.74 V284.88 H122.09 V276.74 H113.95 Z M154.65,276.74 V284.88 H162.79 V276.74 H154.65 Z M162.79,276.74 V284.88 H170.93 V276.74 H162.79 Z M170.93,276.74 V284.88 H179.07 V276.74 H170.93 Z M179.07,276.74 V284.88 H187.21 V276.74 H179.07 Z M195.35,276.74 V284.88 H203.49 V276.74 H195.35 Z M203.49,276.74 V284.88 H211.63 V276.74 H203.49 Z M236.05,276.74 V284.88 H244.19 V276.74 H236.05 Z M260.47,276.74 V284.88 H268.60 V276.74 H260.47 Z M268.60,276.74 V284.88 H276.74 V276.74 H268.60 Z M301.16,276.74 V284.88 H309.30 V276.74 H301.16 Z M309.30,276.74 V284.88 H317.44 V276.74 H309.30 Z M325.58,276.74 V284.88 H333.72 V276.74 H325.58 Z M8.14,284.88 V293.02 H16.28 V284.88 H8.14 Z M16.28,284.88 V293.02 H24.42 V284.88 H16.28 Z M24.42,284.88 V293.02 H32.56 V284.88 H24.42 Z M32.56,284.88 V293.02 H40.70 V284.88 H32.56 Z M40.70,284.88 V293.02 H48.84 V284.88 H40.70 Z M48.84,284.88 V293.02 H56.98 V284.88 H48.84 Z M56.98,284.88 V293.02 H65.12 V284.88 H56.98 Z M73.26,284.88 V293.02 H81.40 V284.88 H73.26 Z M81.40,284.88 V293.02 H89.53 V284.88 H81.40 Z M105.81,284.88 V293.02 H113.95 V284.88 H105.81 Z M122.09,284.88 V293.02 H130.23 V284.88 H122.09 Z M130.23,284.88 V293.02 H138.37 V284.88 H130.23 Z M146.51,284.88 V293.02 H154.65 V284.88 H146.51 Z M154.65,284.88 V293.02 H162.79 V284.88 H154.65 Z M162.79,284.88 V293.02 H170.93 V284.88 H162.79 Z M170.93,284.88 V293.02 H179.07 V284.88 H170.93 Z M179.07,284.88 V293.02 H187.21 V284.88 H179.07 Z M195.35,284.88 V293.02 H203.49 V284.88 H195.35 Z M203.49,284.88 V293.02 H211.63 V284.88 H203.49 Z M211.63,284.88 V293.02 H219.77 V284.88 H211.63 Z M219.77,284.88 V293.02 H227.91 V284.88 H219.77 Z M244.19,284.88 V293.02 H252.33 V284.88 H244.19 Z M268.60,284.88 V293.02 H276.74 V284.88 H268.60 Z M284.88,284.88 V293.02 H293.02 V284.88 H284.88 Z M301.16,284.88 V293.02 H309.30 V284.88 H301.16 Z M309.30,284.88 V293.02 H317.44 V284.88 H309.30 Z M325.58,284.88 V293.02 H333.72 V284.88 H325.58 Z M8.14,293.02 V301.16 H16.28 V293.02 H8.14 Z M56.98,293.02 V301.16 H65.12 V293.02 H56.98 Z M73.26,293.02 V301.16 H81.40 V293.02 H73.26 Z M89.53,293.02 V301.16 H97.67 V293.02 H89.53 Z M105.81,293.02 V301.16 H113.95 V293.02 H105.81 Z M122.09,293.02 V301.16 H130.23 V293.02 H122.09 Z M138.37,293.02 V301.16 H146.51 V293.02 H138.37 Z M146.51,293.02 V301.16 H154.65 V293.02 H146.51 Z M162.79,293.02 V301.16 H170.93 V293.02 H162.79 Z M195.35,293.02 V301.16 H203.49 V293.02 H195.35 Z M227.91,293.02 V301.16 H236.05 V293.02 H227.91 Z M236.05,293.02 V301.16 H244.19 V293.02 H236.05 Z M244.19,293.02 V301.16 H252.33 V293.02 H244.19 Z M252.33,293.02 V301.16 H260.47 V293.02 H252.33 Z M268.60,293.02 V301.16 H276.74 V293.02 H268.60 Z M301.16,293.02 V301.16 H309.30 V293.02 H301.16 Z M325.58,293.02 V301.16 H333.72 V293.02 H325.58 Z M333.72,293.02 V301.16 H341.86 V293.02 H333.72 Z M8.14,301.16 V309.30 H16.28 V301.16 H8.14 Z M24.42,301.16 V309.30 H32.56 V301.16 H24.42 Z M32.56,301.16 V309.30 H40.70 V301.16 H32.56 Z M40.70,301.16 V309.30 H48.84 V301.16 H40.70 Z M56.98,301.16 V309.30 H65.12 V301.16 H56.98 Z M89.53,301.16 V309.30 H97.67 V301.16 H89.53 Z M105.81,301.16 V309.30 H113.95 V301.16 H105.81 Z M122.09,301.16 V309.30 H130.23 V301.16 H122.09 Z M154.65,301.16 V309.30 H162.79 V301.16 H154.65 Z M195.35,301.16 V309.30 H203.49 V301.16 H195.35 Z M252.33,301.16 V309.30 H260.47 V301.16 H252.33 Z M268.60,301.16 V309.30 H276.74 V301.16 H268.60 Z M276.74,301.16 V309.30 H284.88 V301.16 H276.74 Z M284.88,301.16 V309.30 H293.02 V301.16 H284.88 Z M293.02,301.16 V309.30 H301.16 V301.16 H293.02 Z M301.16,301.16 V309.30 H309.30 V301.16 H301.16 Z M309.30,301.16 V309.30 H317.44 V301.16 H309.30 Z M317.44,301.16 V309.30 H325.58 V301.16 H317.44 Z M333.72,301.16 V309.30 H341.86 V301.16 H333.72 Z M8.14,309.30 V317.44 H16.28 V309.30 H8.14 Z M24.42,309.30 V317.44 H32.56 V309.30 H24.42 Z M32.56,309.30 V317.44 H40.70 V309.30 H32.56 Z M40.70,309.30 V317.44 H48.84 V309.30 H40.70 Z M56.98,309.30 V317.44 H65.12 V309.30 H56.98 Z M73.26,309.30 V317.44 H81.40 V309.30 H73.26 Z M81.40,309.30 V317.44 H89.53 V309.30 H81.40 Z M89.53,309.30 V317.44 H97.67 V309.30 H89.53 Z M105.81,309.30 V317.44 H113.95 V309.30 H105.81 Z M122.09,309.30 V317.44 H130.23 V309.30 H122.09 Z M138.37,309.30 V317.44 H146.51 V309.30 H138.37 Z M154.65,309.30 V317.44 H162.79 V309.30 H154.65 Z M162.79,309.30 V317.44 H170.93 V309.30 H162.79 Z M170.93,309.30 V317.44 H179.07 V309.30 H170.93 Z M179.07,309.30 V317.44 H187.21 V309.30 H179.07 Z M211.63,309.30 V317.44 H219.77 V309.30 H211.63 Z M252.33,309.30 V317.44 H260.47 V309.30 H252.33 Z M260.47,309.30 V317.44 H268.60 V309.30 H260.47 Z M276.74,309.30 V317.44 H284.88 V309.30 H276.74 Z M309.30,309.30 V317.44 H317.44 V309.30 H309.30 Z M317.44,309.30 V317.44 H325.58 V309.30 H317.44 Z M333.72,309.30 V317.44 H341.86 V309.30 H333.72 Z M8.14,317.44 V325.58 H16.28 V317.44 H8.14 Z M24.42,317.44 V325.58 H32.56 V317.44 H24.42 Z M32.56,317.44 V325.58 H40.70 V317.44 H32.56 Z M40.70,317.44 V325.58 H48.84 V317.44 H40.70 Z M56.98,317.44 V325.58 H65.12 V317.44 H56.98 Z M73.26,317.44 V325.58 H81.40 V317.44 H73.26 Z M81.40,317.44 V325.58 H89.53 V317.44 H81.40 Z M89.53,317.44 V325.58 H97.67 V317.44 H89.53 Z M97.67,317.44 V325.58 H105.81 V317.44 H97.67 Z M113.95,317.44 V325.58 H122.09 V317.44 H113.95 Z M146.51,317.44 V325.58 H154.65 V317.44 H146.51 Z M154.65,317.44 V325.58 H162.79 V317.44 H154.65 Z M170.93,317.44 V325.58 H179.07 V317.44 H170.93 Z M195.35,317.44 V325.58 H203.49 V317.44 H195.35 Z M244.19,317.44 V325.58 H252.33 V317.44 H244.19 Z M252.33,317.44 V325.58 H260.47 V317.44 H252.33 Z M268.60,317.44 V325.58 H276.74 V317.44 H268.60 Z M276.74,317.44 V325.58 H284.88 V317.44 H276.74 Z M284.88,317.44 V325.58 H293.02 V317.44 H284.88 Z M293.02,317.44 V325.58 H301.16 V317.44 H293.02 Z M301.16,317.44 V325.58 H309.30 V317.44 H301.16 Z M8.14,325.58 V333.72 H16.28 V325.58 H8.14 Z M56.98,325.58 V333.72 H65.12 V325.58 H56.98 Z M89.53,325.58 V333.72 H97.67 V325.58 H89.53 Z M105.81,325.58 V333.72 H113.95 V325.58 H105.81 Z M113.95,325.58 V333.72 H122.09 V325.58 H113.95 Z M122.09,325.58 V333.72 H130.23 V325.58 H122.09 Z M154.65,325.58 V333.72 H162.79 V325.58 H154.65 Z M170.93,325.58 V333.72 H179.07 V325.58 H170.93 Z M179.07,325.58 V333.72 H187.21 V325.58 H179.07 Z M187.21,325.58 V333.72 H195.35 V325.58 H187.21 Z M195.35,325.58 V333.72 H203.49 V325.58 H195.35 Z M211.63,325.58 V333.72 H219.77 V325.58 H211.63 Z M219.77,325.58 V333.72 H227.91 V325.58 H219.77 Z M227.91,325.58 V333.72 H236.05 V325.58 H227.91 Z M244.19,325.58 V333.72 H252.33 V325.58 H244.19 Z M252.33,325.58 V333.72 H260.47 V325.58 H252.33 Z M260.47,325.58 V333.72 H268.60 V325.58 H260.47 Z M268.60,325.58 V333.72 H276.74 V325.58 H268.60 Z M276.74,325.58 V333.72 H284.88 V325.58 H276.74 Z M301.16,325.58 V333.72 H309.30 V325.58 H301.16 Z M309.30,325.58 V333.72 H317.44 V325.58 H309.30 Z M317.44,325.58 V333.72 H325.58 V325.58 H317.44 Z M325.58,325.58 V333.72 H333.72 V325.58 H325.58 Z M333.72,325.58 V333.72 H341.86 V325.58 H333.72 Z M8.14,333.72 V341.86 H16.28 V333.72 H8.14 Z M16.28,333.72 V341.86 H24.42 V333.72 H16.28 Z M24.42,333.72 V341.86 H32.56 V333.72 H24.42 Z M32.56,333.72 V341.86 H40.70 V333.72 H32.56 Z M40.70,333.72 V341.86 H48.84 V333.72 H40.70 Z M48.84,333.72 V341.86 H56.98 V333.72 H48.84 Z M56.98,333.72 V341.86 H65.12 V333.72 H56.98 Z M73.26,333.72 V341.86 H81.40 V333.72 H73.26 Z M81.40,333.72 V341.86 H89.53 V333.72 H81.40 Z M105.81,333.72 V341.86 H113.95 V333.72 H105.81 Z M122.09,333.72 V341.86 H130.23 V333.72 H122.09 Z M130.23,333.72 V341.86 H138.37 V333.72 H130.23 Z M138.37,333.72 V341.86 H146.51 V333.72 H138.37 Z M154.65,333.72 V341.86 H162.79 V333.72 H154.65 Z M179.07,333.72 V341.86 H187.21 V333.72 H179.07 Z M195.35,333.72 V341.86 H203.49 V333.72 H195.35 Z M203.49,333.72 V341.86 H211.63 V333.72 H203.49 Z M219.77,333.72 V341.86 H227.91 V333.72 H219.77 Z M227.91,333.72 V341.86 H236.05 V333.72 H227.91 Z M244.19,333.72 V341.86 H252.33 V333.72 H244.19 Z M252.33,333.72 V341.86 H260.47 V333.72 H252.33 Z M276.74,333.72 V341.86 H284.88 V333.72 H276.74 Z M309.30,333.72 V341.86 H317.44 V333.72 H309.30 Z M317.44,333.72 V341.86 H325.58 V333.72 H317.44 Z "></path></svg><circle fill="#fff" stroke-width="6px" stroke="#000" cx="175" cy="175" r="65.75"></circle><svg x="117.25" y="117.25" width="115.5" height="115.5" viewBox="0 0 24 24" fill="#000"><path d="M12 0c-6.626 0-12 5.373-12 12 0 5.302 3.438 9.8 8.207 11.387.599.111.793-.261.793-.577v-2.234c-3.338.726-4.033-1.416-4.033-1.416-.546-1.387-1.333-1.756-1.333-1.756-1.089-.745.083-.729.083-.729 1.205.084 1.839 1.237 1.839 1.237 1.07 1.834 2.807 1.304 3.492.997.107-.775.418-1.305.762-1.604-2.665-.305-5.467-1.334-5.467-5.931 0-1.311.469-2.381 1.236-3.221-.124-.303-.535-1.524.117-3.176 0 0 1.008-.322 3.301 1.23.957-.266 1.983-.399 3.003-.404 1.02.005 2.047.138 3.006.404 2.291-1.552 3.297-1.23 3.297-1.23.653 1.653.242 2.874.118 3.176.77.84 1.235 1.911 1.235 3.221 0 4.609-2.807 5.624-5.479 5.921.43.372.823 1.102.823 2.222v3.293c0 .319.192.694.801.576 4.765-1.589 8.199-6.086 8.199-11.386 0-6.627-5.373-12-12-12z"></path></svg></svg>