<svg width="350" height="350" version="1.1" xmlns="http://www.w3.org/2000/svg" xmlns:xlink="http://www.w3.org/1999/xlink"><svg><rect x="0" y="0" width="350" height="350" style="fill:#fff;shape-rendering:crispEdges;"></rect><path x="0" y="0" style="fill:#000;shape-rendering:crispEdges;" d="M6.86,6.86 V13.73 H13.73 V6.86 H6.86 Z M13.73,6.86 V13.73 H20.59 V6.86 H13.73 Z M20.59,6.86 V13.73 H27.45 V6.86 H20.59 Z M27.45,6.86 V13.73 H34.31 V6.86 H27.45 Z M34.31,6.86 V13.73 H41.18 V6.86 H34.31 Z M41.18,6.86 V13.73 H48.04 V6.86 H41.18 Z M48.04,6.86 V13.73 H54.90 V6.86 H48.04 Z M82.35,6.86 V13.73 H89.22 V6.86 H82.35 Z M116.67,6.86 V13.73 H123.53 V6.86 H116.67 Z M137.25,6.86 V13.73 H144.12 V6.86 H137.25 Z M150.98,6.86 V13.73 H157.84 V6.86 H150.98 Z M171.57,6.86 V13.73 H178.43 V6.86 H171.57 Z M185.29,6.86 V13.73 H192.16 V6.86 H185.29 Z M212.75,6.86 V13.73 H219.61 V6.86 H212.75 Z M219.61,6.86 V13.73 H226.47 V6.86 H219.61 Z M240.20,6.86 V13.73 H247.06 V6.86 H240.20 Z M247.06,6.86 V13.73 H253.92 V6.86 H247.06 Z M260.78,6.86 V13.73 H267.65 V6.86 H260.78 Z M281.37,6.86 V13.73 H288.24 V6.86 H281.37 Z M295.10,6.86 V13.73 H301.96 V6.86 H295.10 Z M301.96,6.86 V13.73 H308.82 V6.86 H301.96 Z M308.82,6.86 V13.73 H315.69 V6.86 H308.82 Z M315.69,6.86 V13.73 H322.55 V6.86 H315.69 Z M322.55,6.86 V13.73 H329.41 V6.86 H322.55 Z M329.41,6.86 V13.73 H336.27 V6.86 H329.41 Z M336.27,6.86 V13.73 H343.14 V6.86 H336.27 Z M6.86,13.73 V20.59 H13.73 V13.73 H6.86 Z M48.04,13.73 V20.59 H54.90 V13.73 H48.04 Z M61.76,13.73 V20.59 H68.63 V13.73 H61.76 Z M89.22,13.73 V20.59 H96.08 V13.73 H89.22 Z M102.94,13.73 V20.59 H109.80 V13.73 H102.94 Z M109.80,13.73 V20.59 H116.67 V13.73 H109.80 Z M130.39,13.73 V20.59 H137.25 V13.73 H130.39 Z M137.25,13.73 V20.59 H144.12 V13.73 H137.25 Z M157.84,13.73 V20.59 H164.71 V13.73 H157.84 Z M185.29,13.73 V20.59 H192.16 V13.73 H185.29 Z M192.16,13.73 V20.59 H199.02 V13.73 H192.16 Z M226.47,13.73 V20.59 H233.33 V13.73 H226.47 Z M240.20,13.73 V20.59 H247.06 V13.73 H240.20 Z M253.92,13.73 V20.59 H260.78 V13.73 H253.92 Z M260.78,13.73 V20.59 H267.65 V13.73 H260.78 Z M267.65,13.73 V20.59 H274.51 V13.73 H267.65 Z M274.51,13.73 V20.59 H281.37 V13.73 H274.51 Z M281.37,13.73 V20.59 H288.24 V13.73 H281.37 Z M295.10,13.73 V20.59 H301.96 V13.73 H295.10 Z M336.27,13.73 V20.59 H343.14 V13.73 H336.27 Z M6.86,20.59 V27.45 H13.73 V20.59 H6.86 Z M20.59,20.59 V27.45 H27.45 V20.59 H20.59 Z M27.45,20.59 V27.45 H34.31 V20.59 H27.45 Z M34.31,20.59 V27.45 H41.18 V20.59 H34.31 Z M48.04,20.59 V27.45 H54.90 V20.59 H48.04 Z M61.76,20.59 V27.45 H68.63 V20.59 H61.76 Z M68.63,20.59 V27.45 H75.49 V20.59 H68.63 Z M75.49,20.59 V27.45 H82.35 V20.59 H75.49 Z M96.08,20.59 V27.45 H102.94 V20.59 H96.08 Z M102.94,20.59 V27.45 H109.80 V20.59 H102.94 Z M109.80,20.59 V27.45 H116.67 V20.59 H109.80 Z M116.67,20.59 V27.45 H123.53 V20.59 H116.67 Z M130.39,20.59 V27.45 H137.25 V20.59 H130.39 Z M144.12,20.59 V27.45 H150.98 V20.59 H144.12 Z M157.84,20.59 V27.45 H164.71 V20.59 H157.84 Z M164.71,20.59 V27.45 H171.57 V20.59 H164.71 Z M178.43,20.59 V27.45 H185.29 V20.59 H178.43 Z M260.78,20.59 V27.45 H267.65 V20.59 H260.78 Z M274.51,20.59 V27.45 H281.37 V20.59 H274.51 Z M281.37,20.59 V27.45 H288.24 V20.59 H281.37 Z M295.10,20.59 V27.45 H301.96 V20.59 H295.10 Z M308.82,20.59 V27.45 H315.69 V20.59 H308.82 Z M315.69,20.59 V27.45 H322.55 V20.59 H315.69 Z M322.55,20.59 V27.45 H329.41 V20.59 H322.55 Z M336.27,20.59 V27.45 H343.14 V20.59 H336.27 Z M6.86,27.45 V34.31 H13.73 V27.45 H6.86 Z M20.59,27.45 V34.31 H27.45 V27.45 H20.59 Z M27.45,27.45 V34.31 H34.31 V27.45 H27.45 Z M34.31,27.45 V34.31 H41.18 V27.45 H34.31 Z M48.04,27.45 V34.31 H54.90 V27.45 H48.04 Z M61.76,27.45 V34.31 H68.63 V27.45 H61.76 Z M68.63,27.45 V34.31 H75.49 V27.45 H68.63 Z M75.49,27.45 V34.31 H82.35 V27.45 H75.49 Z M82.35,27.45 V34.31 H89.22 V27.45 H82.35 Z M89.22,27.45 V34.31 H96.08 V27.45 H89.22 Z M109.80,27.45 V34.31 H116.67 V27.45 H109.80 Z M137.25,27.45 V34.31 H144.12 V27.45 H137.25 Z M144.12,27.45 V34.31 H150.98 V27.45 H144.12 Z M150.98,27.45 V34.31 H157.84 V27.45 H150.98 Z M164.71,27.45 V34.31 H171.57 V27.45 H164.71 Z M192.16,27.45 V34.31 H199.02 V27.45 H192.16 Z M199.02,27.45 V34.31 H205.88 V27.45 H199.02 Z M205.88,27.45 V34.31 H212.75 V27.45 H205.88 Z M212.75,27.45 V34.31 H219.61 V27.45 H212.75 Z M219.61,27.45 V34.31 H226.47 V27.45 H219.61 Z M226.47,27.45 V34.31 H233.33 V27.45 H226.47 Z M260.78,27.45 V34.31 H267.65 V27.45 H260.78 Z M274.51,27.45 V34.31 H281.37 V27.45 H274.51 Z M295.10,27.45 V34.31 H301.96 V27.45 H295.10 Z M308.82,27.45 V34.31 H315.69 V27.45 H308.82 Z M315.69,27.45 V34.31 H322.55 V27.45 H315.69 Z M322.55,27.45 V34.31 H329.41 V27.45 H322.55 Z M336.27,27.45 V34.31 H343.14 V27.45 H336.27 Z M6.86,34.31 V41.18 H13.73 V34.31 H6.86 Z M20.59,34.31 V41.18 H27.45 V34.31 H20.59 Z M27.45,34.31 V41.18 H34.31 V34.31 H27.45 Z M34.31,34.31 V41.18 H41.18 V34.31 H34.31 Z M48.04,34.31 V41.18 H54.90 V34.31 H48.04 Z M61.76,34.31 V41.18 H68.63 V34.31 H61.76 Z M68.63,34.31 V41.18 H75.49 V34.31 H68.63 Z M82.35,34.31 V41.18 H89.22 V34.31 H82.35 Z M89.22,34.31 V41.18 H96.08 V34.31 H89.22 Z M102.94,34.31 V41.18 H109.80 V34.31 H102.94 Z M109.80,34.31 V41.18 H116.67 V34.31 H109.80 Z M130.39,34.31 V41.18 H137.25 V34.31 H130.39 Z M157.84,34.31 V41.18 H164.71 V34.31 H157.84 Z M164.71,34.31 V41.18 H171.57 V34.31 H164.71 Z M171.57,34.31 V41.18 H178.43 V34.31 H171.57 Z M178.43,34.31 V41.18 H185.29 V34.31 H178.43 Z M185.29,34.31 V41.18 H192.16 V34.31 H185.29 Z M199.02,34.31 V41.18 H205.88 V34.31 H199.02 Z M212.75,34.31 V41.18 H219.61 V34.31 H212.75 Z M233.33,34.31 V41.18 H240.20 V34.31 H233.33 Z M240.20,34.31 V41.18 H247.06 V34.31 H240.20 Z M247.06,34.31 V41.18 H253.92 V34.31 H247.06 Z M260.78,34.31 V41.18 H267.65 V34.31 H260.78 Z M295.10,34.31 V41.18 H301.96 V34.31 H295.10 Z M308.82,34.31 V41.18 H315.69 V34.31 H308.82 Z M315.69,34.31 V41.18 H322.55 V34.31 H315.69 Z M322.55,34.31 V41.18 H329.41 V34.31 H322.55 Z M336.27,34.31 V41.18 H343.14 V34.31 H336.27 Z M6.86,41.18 V48.04 H13.73 V41.18 H6.86 Z M48.04,41.18 V48.04 H54.90 V41.18 H48.04 Z M61.76,41.18 V48.04 H68.63 V41.18 H61.76 Z M68.63,41.18 V48.04 H75.49 V41.18 H68.63 Z M75.49,41.18 V48.04 H82.35 V41.18 H75.49 Z M82.35,41.18 V48.04 H89.22 V41.18 H82.35 Z M89.22,41.18 V48.04 H96.08 V41.18 H89.22 Z M96.08,41.18 V48.04 H102.94 V41.18 H96.08 Z M102.94,41.18 V48.04 H109.80 V41.18 H102.94 Z M116.67,41.18 V48.04 H123.53 V41.18 H116.67 Z M123.53,41.18 V48.04 H130.39 V41.18 H123.53 Z M144.12,41.18 V48.04 H150.98 V41.18 H144.12 Z M150.98,41.18 V48.04 H157.84 V41.18 H150.98 Z M157.84,41.18 V48.04 H164.71 V41.18 H157.84 Z M185.29,41.18 V48.04 H192.16 V41.18 H185.29 Z M212.75,41.18 V48.04 H219.61 V41.18 H212.75 Z M219.61,41.18 V48.04 H226.47 V41.18 H219.61 Z M226.47,41.18 V48.04 H233.33 V41.18 H226.47 Z M240.20,41.18 V48.04 H247.06 V41.18 H240.20 Z M253.92,41.18 V48.04 H260.78 V41.18 H253.92 Z M267.65,41.18 V48.04 H274.51 V41.18 H267.65 Z M295.10,41.18 V48.04 H301.96 V41.18 H295.10 Z M336.27,41.18 V48.04 H343.14 V41.18 H336.27 Z M6.86,48.04 V54.90 H13.73 V48.04 H6.86 Z M13.73,48.04 V54.90 H20.59 V48.04 H13.73 Z M20.59,48.04 V54.90 H27.45 V48.04 H20.59 Z M27.45,48.04 V54.90 H34.31 V48.04 H27.45 Z M34.31,48.04 V54.90 H41.18 V48.04 H34.31 Z M41.18,48.04 V54.90 H48.04 V48.04 H41.18 Z M48.04,48.04 V54.90 H54.90 V48.04 H48.04 Z M61.76,48.04 V54.90 H68.63 V48.04 H61.76 Z M75.49,48.04 V54.90 H82.35 V48.04 H75.49 Z M89.22,48.04 V54.90 H96.08 V48.04 H89.22 Z M102.94,48.04 V54.90 H109.80 V48.04 H102.94 Z M116.67,48.04 V54.90 H123.53 V48.04 H116.67 Z M130.39,48.04 V54.90 H137.25 V48.04 H130.39 Z M144.12,48.04 V54.90 H150.98 V48.04 H144.12 Z M157.84,48.04 V54.90 H164.71 V48.04 H157.84 Z M171.57,48.04 V54.90 H178.43 V48.04 H171.57 Z M185.29,48.04 V54.90 H192.16 V48.04 H185.29 Z M199.02,48.04 V54.90 H205.88 V48.04 H199.02 Z M212.75,48.04 V54.90 H219.61 V48.04 H212.75 Z M226.47,48.04 V54.90 H233.33 V48.04 H226.47 Z M240.20,48.04 V54.90 H247.06 V48.04 H240.20 Z M253.92,48.04 V54.90 H260.78 V48.04 H253.92 Z M267.65,48.04 V54.90 H274.51 V48.04 H267.65 Z M281.37,48.04 V54.90 H288.24 V48.04 H281.37 Z M295.10,48.04 V54.90 H301.96 V48.04 H295.10 Z M301.96,48.04 V54.90 H308.82 V48.04 H301.96 Z M308.82,48.04 V54.90 H315.69 V48.04 H308.82 Z M315.69,48.04 V54.90 H322.55 V48.04 H315.69 Z M322.55,48.04 V54.90 H329.41 V48.04 H322.55 Z M329.41,48.04 V54.90 H336.27 V48.04 H329.41 Z M336.27,48.04 V54.90 H343.14 V48.04 H336.27 Z M61.76,54.90 V61.76 H68.63 V54.90 H61.76 Z M75.49,54.90 V61.76 H82.35 V54.90 H75.49 Z M89.22,54.90 V61.76 H96.08 V54.90 H89.22 Z M96.08,54.90 V61.76 H102.94 V54.90 H96.08 Z M102.94,54.90 V61.76 H109.80 V54.90 H102.94 Z M123.53,54.90 V61.76 H130.39 V54.90 H123.53 Z M130.39,54.90 V61.76 H137.25 V54.90 H130.39 Z M137.25,54.90 V61.76 H144.12 V54.90 H137.25 Z M150.98,54.90 V61.76 H157.84 V54.90 H150.98 Z M157.84,54.90 V61.76 H164.71 V54.90 H157.84 Z M185.29,54.90 V61.76 H192.16 V54.90 H185.29 Z M205.88,54.90 V61.76 H212.75 V54.90 H205.88 Z M219.61,54.90 V61.76 H226.47 V54.90 H219.61 Z M233.33,54.90 V61.76 H240.20 V54.90 H233.33 Z M253.92,54.90 V61.76 H260.78 V54.90 H253.92 Z M267.65,54.90 V61.76 H274.51 V54.90 H267.65 Z M281.37,54.90 V61.76 H288.24 V54.90 H281.37 Z M6.86,61.76 V68.63 H13.73 V61.76 H6.86 Z M34.31,61.76 V68.63 H41.18 V61.76 H34.31 Z M41.18,61.76 V68.63 H48.04 V61.76 H41.18 Z M48.04,61.76 V68.63 H54.90 V61.76 H48.04 Z M82.35,61.76 V68.63 H89.22 V61.76 H82.35 Z M89.22,61.76 V68.63 H96.08 V61.76 H89.22 Z M116.67,61.76 V68.63 H123.53 V61.76 H116.67 Z M137.25,61.76 V68.63 H144.12 V61.76 H137.25 Z M157.84,61.76 V68.63 H164.71 V61.76 H157.84 Z M164.71,61.76 V68.63 H171.57 V61.76 H164.71 Z M171.57,61.76 V68.63 H178.43 V61.76 H171.57 Z M178.43,61.76 V68.63 H185.29 V61.76 H178.43 Z M185.29,61.76 V68.63 H192.16 V61.76 H185.29 Z M205.88,61.76 V68.63 H212.75 V61.76 H205.88 Z M212.75,61.76 V68.63 H219.61 V61.76 H212.75 Z M219.61,61.76 V68.63 H226.47 V61.76 H219.61 Z M226.47,61.76 V68.63 H233.33 V61.76 H226.47 Z M233.33,61.76 V68.63 H240.20 V61.76 H233.33 Z M247.06,61.76 V68.63 H253.92 V61.76 H247.06 Z M274.51,61.76 V68.63 H281.37 V61.76 H274.51 Z M281.37,61.76 V68.63 H288.24 V61.76 H281.37 Z M288.24,61.76 V68.63 H295.10 V61.76 H288.24 Z M295.10,61.76 V68.63 H301.96 V61.76 H295.10 Z M301.96,61.76 V68.63 H308.82 V61.76 H301.96 Z M308.82,61.76 V68.63 H315.69 V61.76 H308.82 Z M315.69,61.76 V68.63 H322.55 V61.76 H315.69 Z M322.55,61.76 V68.63 H329.41 V61.76 H322.55 Z M329.41,61.76 V68.63 H336.27 V61.76 H329.41 Z M13.73,68.63 V75.49 H20.59 V68.63 H13.73 Z M68.63,68.63 V75.49 H75.49 V68.63 H68.63 Z M75.49,68.63 V75.49 H82.35 V68.63 H75.49 Z M82.35,68.63 V75.49 H89.22 V68.63 H82.35 Z M89.22,68.63 V75.49 H96.08 V68.63 H89.22 Z M102.94,68.63 V75.49 H109.80 V68.63 H102.94 Z M109.80,68.63 V75.49 H116.67 V68.63 H109.80 Z M116.67,68.63 V75.49 H123.53 V68.63 H116.67 Z M130.39,68.63 V75.49 H137.25 V68.63 H130.39 Z M137.25,68.63 V75.49 H144.12 V68.63 H137.25 Z M144.12,68.63 V75.49 H150.98 V68.63 H144.12 Z M164.71,68.63 V75.49 H171.57 V68.63 H164.71 Z M171.57,68.63 V75.49 H178.43 V68.63 H171.57 Z M199.02,68.63 V75.49 H205.88 V68.63 H199.02 Z M247.06,68.63 V75.49 H253.92 V68.63 H247.06 Z M253.92,68.63 V75.49 H260.78 V68.63 H253.92 Z M267.65,68.63 V75.49 H274.51 V68.63 H267.65 Z M281.37,68.63 V75.49 H288.24 V68.63 H281.37 Z M288.24,68.63 V75.49 H295.10 V68.63 H288.24 Z M295.10,68.63 V75.49 H301.96 V68.63 H295.10 Z M308.82,68.63 V75.49 H315.69 V68.63 H308.82 Z M322.55,68.63 V75.49 H329.41 V68.63 H322.55 Z M329.41,68.63 V75.49 H336.27 V68.63 H329.41 Z M336.27,68.63 V75.49 H343.14 V68.63 H336.27 Z M20.59,75.49 V82.35 H27.45 V75.49 H20.59 Z M27.45,75.49 V82.35 H34.31 V75.49 H27.45 Z M48.04,75.49 V82.35 H54.90 V75.49 H48.04 Z M54.90,75.49 V82.35 H61.76 V75.49 H54.90 Z M61.76,75.49 V82.35 H68.63 V75.49 H61.76 Z M75.49,75.49 V82.35 H82.35 V75.49 H75.49 Z M109.80,75.49 V82.35 H116.67 V75.49 H109.80 Z M116.67,75.49 V82.35 H123.53 V75.49 H116.67 Z M123.53,75.49 V82.35 H130.39 V75.49 H123.53 Z M137.25,75.49 V82.35 H144.12 V75.49 H137.25 Z M150.98,75.49 V82.35 H157.84 V75.49 H150.98 Z M164.71,75.49 V82.35 H171.57 V75.49 H164.71 Z M185.29,75.49 V82.35 H192.16 V75.49 H185.29 Z M212.75,75.49 V82.35 H219.61 V75.49 H212.75 Z M274.51,75.49 V82.35 H281.37 V75.49 H274.51 Z M281.37,75.49 V82.35 H288.24 V75.49 H281.37 Z M322.55,75.49 V82.35 H329.41 V75.49 H322.55 Z M6.86,82.35 V89.22 H13.73 V82.35 H6.86 Z M13.73,82.35 V89.22 H20.59 V82.35 H13.73 Z M20.59,82.35 V89.22 H27.45 V82.35 H20.59 Z M34.31,82.35 V89.22 H41.18 V82.35 H34.31 Z M68.63,82.35 V89.22 H75.49 V82.35 H68.63 Z M75.49,82.35 V89.22 H82.35 V82.35 H75.49 Z M96.08,82.35 V89.22 H102.94 V82.35 H96.08 Z M150.98,82.35 V89.22 H157.84 V82.35 H150.98 Z M178.43,82.35 V89.22 H185.29 V82.35 H178.43 Z M199.02,82.35 V89.22 H205.88 V82.35 H199.02 Z M205.88,82.35 V89.22 H212.75 V82.35 H205.88 Z M212.75,82.35 V89.22 H219.61 V82.35 H212.75 Z M226.47,82.35 V89.22 H233.33 V82.35 H226.47 Z M240.20,82.35 V89.22 H247.06 V82.35 H240.20 Z M281.37,82.35 V89.22 H288.24 V82.35 H281.37 Z M288.24,82.35 V89.22 H295.10 V82.35 H288.24 Z M301.96,82.35 V89.22 H308.82 V82.35 H301.96 Z M329.41,82.35 V89.22 H336.27 V82.35 H329.41 Z M336.27,82.35 V89.22 H343.14 V82.35 H336.27 Z M6.86,89.22 V96.08 H13.73 V89.22 H6.86 Z M27.45,89.22 V96.08 H34.31 V89.22 H27.45 Z M34.31,89.22 V96.08 H41.18 V89.22 H34.31 Z M41.18,89.22 V96.08 H48.04 V89.22 H41.18 Z M48.04,89.22 V96.08 H54.90 V89.22 H48.04 Z M54.90,89.22 V96.08 H61.76 V89.22 H54.90 Z M89.22,89.22 V96.08 H96.08 V89.22 H89.22 Z M96.08,89.22 V96.08 H102.94 V89.22 H96.08 Z M109.80,89.22 V96.08 H116.67 V89.22 H109.80 Z M116.67,89.22 V96.08 H123.53 V89.22 H116.67 Z M130.39,89.22 V96.08 H137.25 V89.22 H130.39 Z M137.25,89.22 V96.08 H144.12 V89.22 H137.25 Z M171.57,89.22 V96.08 H178.43 V89.22 H171.57 Z M178.43,89.22 V96.08 H185.29 V89.22 H178.43 Z M185.29,89.22 V96.08 H192.16 V89.22 H185.29 Z M212.75,89.22 V96.08 H219.61 V89.22 H212.75 Z M219.61,89.22 V96.08 H226.47 V89.22 H219.61 Z M240.20,89.22 V96.08 H247.06 V89.22 H240.20 Z M247.06,89.22 V96.08 H253.92 V89.22 H247.06 Z M253.92,89.22 V96.08 H260.78 V89.22 H253.92 Z M267.65,89.22 V96.08 H274.51 V89.22 H267.65 Z M281.37,89.22 V96.08 H288.24 V89.22 H281.37 Z M295.10,89.22 V96.08 H301.96 V89.22 H295.10 Z M315.69,89.22 V96.08 H322.55 V89.22 H315.69 Z M322.55,89.22 V96.08 H329.41 V89.22 H322.55 Z M329.41,89.22 V96.08 H336.27 V89.22 H329.41 Z M34.31,96.08 V102.94 H41.18 V96.08 H34.31 Z M41.18,96.08 V102.94 H48.04 V96.08 H41.18 Z M54.90,96.08 V102.94 H61.76 V96.08 H54.90 Z M61.76,96.08 V102.94 H68.63 V96.08 H61.76 Z M68.63,96.08 V102.94 H75.49 V96.08 H68.63 Z M75.49,96.08 V102.94 H82.35 V96.08 H75.49 Z M82.35,96.08 V102.94 H89.22 V96.08 H82.35 Z M89.22,96.08 V102.94 H96.08 V96.08 H89.22 Z M109.80,96.08 V102.94 H116.67 V96.08 H109.80 Z M123.53,96.08 V102.94 H130.39 V96.08 H123.53 Z M144.12,96.08 V102.94 H150.98 V96.08 H144.12 Z M178.43,96.08 V102.94 H185.29 V96.08 H178.43 Z M199.02,96.08 V102.94 H205.88 V96.08 H199.02 Z M219.61,96.08 V102.94 H226.47 V96.08 H219.61 Z M233.33,96.08 V102.94 H240.20 V96.08 H233.33 Z M267.65,96.08 V102.94 H274.51 V96.08 H267.65 Z M281.37,96.08 V102.94 H288.24 V96.08 H281.37 Z M295.10,96.08 V102.94 H301.96 V96.08 H295.10 Z M308.82,96.08 V102.94 H315.69 V96.08 H308.82 Z M329.41,96.08 V102.94 H336.27 V96.08 H329.41 Z M6.86,102.94 V109.80 H13.73 V102.94 H6.86 Z M13.73,102.94 V109.80 H20.59 V102.94 H13.73 Z M41.18,102.94 V109.80 H48.04 V102.94 H41.18 Z M48.04,102.94 V109.80 H54.90 V102.94 H48.04 Z M54.90,102.94 V109.80 H61.76 V102.94 H54.90 Z M61.76,102.94 V109.80 H68.63 V102.94 H61.76 Z M96.08,102.94 V109.80 H102.94 V102.94 H96.08 Z M102.94,102.94 V109.80 H109.80 V102.94 H102.94 Z M123.53,102.94 V109.80 H130.39 V102.94 H123.53 Z M130.39,102.94 V109.80 H137.25 V102.94 H130.39 Z M144.12,102.94 V109.80 H150.98 V102.94 H144.12 Z M150.98,102.94 V109.80 H157.84 V102.94 H150.98 Z M192.16,102.94 V109.80 H199.02 V102.94 H192.16 Z M219.61,102.94 V109.80 H226.47 V102.94 H219.61 Z M226.47,102.94 V109.80 H233.33 V102.94 H226.47 Z M240.20,102.94 V109.80 H247.06 V102.94 H240.20 Z M247.06,102.94 V109.80 H253.92 V102.94 H247.06 Z M253.92,102.94 V109.80 H260.78 V102.94 H253.92 Z M267.65,102.94 V109.80 H274.51 V102.94 H267.65 Z M288.24,102.94 V109.80 H295.10 V102.94 H288.24 Z M329.41,102.94 V109.80 H336.27 V102.94 H329.41 Z M13.73,109.80 V116.67 H20.59 V109.80 H13.73 Z M20.59,109.80 V116.67 H27.45 V109.80 H20.59 Z M27.45,109.80 V116.67 H34.31 V109.80 H27.45 Z M34.31,109.80 V116.67 H41.18 V109.80 H34.31 Z M54.90,109.80 V116.67 H61.76 V109.80 H54.90 Z M96.08,109.80 V116.67 H102.94 V109.80 H96.08 Z M116.67,109.80 V116.67 H123.53 V109.80 H116.67 Z M130.39,109.80 V116.67 H137.25 V109.80 H130.39 Z M137.25,109.80 V116.67 H144.12 V109.80 H137.25 Z M144.12,109.80 V116.67 H150.98 V109.80 H144.12 Z M150.98,109.80 V116.67 H157.84 V109.80 H150.98 Z M157.84,109.80 V116.67 H164.71 V109.80 H157.84 Z M164.71,109.80 V116.67 H171.57 V109.80 H164.71 Z M178.43,109.80 V116.67 H185.29 V109.80 H178.43 Z M205.88,109.80 V116.67 H212.75 V109.80 H205.88 Z M212.75,109.80 V116.67 H219.61 V109.80 H212.75 Z M219.61,109.80 V116.67 H226.47 V109.80 H219.61 Z M226.47,109.80 V116.67 H233.33 V109.80 H226.47 Z M233.33,109.80 V116.67 H240.20 V109.80 H233.33 Z M240.20,109.80 V116.67 H247.06 V109.80 H240.20 Z M260.78,109.80 V116.67 H267.65 V109.80 H260.78 Z M267.65,109.80 V116.67 H274.51 V109.80 H267.65 Z M274.51,109.80 V116.67 H281.37 V109.80 H274.51 Z M295.10,109.80 V116.67 H301.96 V109.80 H295.10 Z M308.82,109.80 V116.67 H315.69 V109.80 H308.82 Z M322.55,109.80 V116.67 H329.41 V109.80 H322.55 Z M336.27,109.80 V116.67 H343.14 V109.80 H336.27 Z M41.18,116.67 V123.53 H48.04 V116.67 H41.18 Z M48.04,116.67 V123.53 H54.90 V116.67 H48.04 Z M54.90,116.67 V123.53 H61.76 V116.67 H54.90 Z M61.76,116.67 V123.53 H68.63 V116.67 H61.76 Z M75.49,116.67 V123.53 H82.35 V116.67 H75.49 Z M82.35,116.67 V123.53 H89.22 V116.67 H82.35 Z M102.94,116.67 V123.53 H109.80 V116.67 H102.94 Z M116.67,116.67 V123.53 H123.53 V116.67 H116.67 Z M123.53,116.67 V123.53 H130.39 V116.67 H123.53 Z M144.12,116.67 V123.53 H150.98 V116.67 H144.12 Z M171.57,116.67 V123.53 H178.43 V116.67 H171.57 Z M192.16,116.67 V123.53 H199.02 V116.67 H192.16 Z M219.61,116.67 V123.53 H226.47 V116.67 H219.61 Z M226.47,116.67 V123.53 H233.33 V116.67 H226.47 Z M260.78,116.67 V123.53 H267.65 V116.67 H260.78 Z M267.65,116.67 V123.53 H274.51 V116.67 H267.65 Z M281.37,116.67 V123.53 H288.24 V116.67 H281.37 Z M301.96,116.67 V123.53 H308.82 V116.67 H301.96 Z M308.82,116.67 V123.53 H315.69 V116.67 H308.82 Z M315.69,116.67 V123.53 H322.55 V116.67 H315.69 Z M13.73,123.53 V130.39 H20.59 V123.53 H13.73 Z M20.59,123.53 V130.39 H27.45 V123.53 H20.59 Z M34.31,123.53 V130.39 H41.18 V123.53 H34.31 Z M54.90,123.53 V130.39 H61.76 V123.53 H54.90 Z M61.76,123.53 V130.39 H68.63 V123.53 H61.76 Z M75.49,123.53 V130.39 H82.35 V123.53 H75.49 Z M96.08,123.53 V130.39 H102.94 V123.53 H96.08 Z M102.94,123.53 V130.39 H109.80 V123.53 H102.94 Z M109.80,123.53 V130.39 H116.67 V123.53 H109.80 Z M116.67,123.53 V130.39 H123.53 V123.53 H116.67 Z M123.53,123.53 V130.39 H130.39 V123.53 H123.53 Z M137.25,123.53 V130.39 H144.12 V123.53 H137.25 Z M199.02,123.53 V130.39 H205.88 V123.53 H199.02 Z M205.88,123.53 V130.39 H212.75 V123.53 H205.88 Z M226.47,123.53 V130.39 H233.33 V123.53 H226.47 Z M260.78,123.53 V130.39 H267.65 V123.53 H260.78 Z M267.65,123.53 V130.39 H274.51 V123.53 H267.65 Z M274.51,123.53 V130.39 H281.37 V123.53 H274.51 Z M281.37,123.53 V130.39 H288.24 V123.53 H281.37 Z M288.24,123.53 V130.39 H295.10 V123.53 H288.24 Z M295.10,123.53 V130.39 H301.96 V123.53 H295.10 Z M301.96,123.53 V130.39 H308.82 V123.53 H301.96 Z M308.82,123.53 V130.39 H315.69 V123.53 H308.82 Z M322.55,123.53 V130.39 H329.41 V123.53 H322.55 Z M20.59,130.39 V137.25 H27.45 V130.39 H20.59 Z M34.31,130.39 V137.25 H41.18 V130.39 H34.31 Z M41.18,130.39 V137.25 H48.04 V130.39 H41.18 Z M48.04,130.39 V137.25 H54.90 V130.39 H48.04 Z M61.76,130.39 V137.25 H68.63 V130.39 H61.76 Z M68.63,130.39 V137.25 H75.49 V130.39 H68.63 Z M75.49,130.39 V137.25 H82.35 V130.39 H75.49 Z M82.35,130.39 V137.25 H89.22 V130.39 H82.35 Z M96.08,130.39 V137.25 H102.94 V130.39 H96.08 Z M102.94,130.39 V137.25 H109.80 V130.39 H102.94 Z M109.80,130.39 V137.25 H116.67 V130.39 H109.80 Z M116.67,130.39 V137.25 H123.53 V130.39 H116.67 Z M130.39,130.39 V137.25 H137.25 V130.39 H130.39 Z M137.25,130.39 V137.25 H144.12 V130.39 H137.25 Z M144.12,130.39 V137.25 H150.98 V130.39 H144.12 Z M157.84,130.39 V137.25 H164.71 V130.39 H157.84 Z M164.71,130.39 V137.25 H171.57 V130.39 H164.71 Z M178.43,130.39 V137.25 H185.29 V130.39 H178.43 Z M185.29,130.39 V137.25 H192.16 V130.39 H185.29 Z M192.16,130.39 V137.25 H199.02 V130.39 H192.16 Z M205.88,130.39 V137.25 H212.75 V130.39 H205.88 Z M233.33,130.39 V137.25 H240.20 V130.39 H233.33 Z M240.20,130.39 V137.25 H247.06 V130.39 H240.20 Z M247.06,130.39 V137.25 H253.92 V130.39 H247.06 Z M253.92,130.39 V137.25 H260.78 V130.39 H253.92 Z M267.65,130.39 V137.25 H274.51 V130.39 H267.65 Z M274.51,130.39 V137.25 H281.37 V130.39 H274.51 Z M295.10,130.39 V137.25 H301.96 V130.39 H295.10 Z M308.82,130.39 V137.25 H315.69 V130.39 H308.82 Z M336.27,130.39 V137.25 H343.14 V130.39 H336.27 Z M13.73,137.25 V144.12 H20.59 V137.25 H13.73 Z M20.59,137.25 V144.12 H27.45 V137.25 H20.59 Z M34.31,137.25 V144.12 H41.18 V137.25 H34.31 Z M54.90,137.25 V144.12 H61.76 V137.25 H54.90 Z M82.35,137.25 V144.12 H89.22 V137.25 H82.35 Z M96.08,137.25 V144.12 H102.94 V137.25 H96.08 Z M116.67,137.25 V144.12 H123.53 V137.25 H116.67 Z M123.53,137.25 V144.12 H130.39 V137.25 H123.53 Z M137.25,137.25 V144.12 H144.12 V137.25 H137.25 Z M144.12,137.25 V144.12 H150.98 V137.25 H144.12 Z M150.98,137.25 V144.12 H157.84 V137.25 H150.98 Z M157.84,137.25 V144.12 H164.71 V137.25 H157.84 Z M171.57,137.25 V144.12 H178.43 V137.25 H171.57 Z M205.88,137.25 V144.12 H212.75 V137.25 H205.88 Z M219.61,137.25 V144.12 H226.47 V137.25 H219.61 Z M226.47,137.25 V144.12 H233.33 V137.25 H226.47 Z M260.78,137.25 V144.12 H267.65 V137.25 H260.78 Z M267.65,137.25 V144.12 H274.51 V137.25 H267.65 Z M274.51,137.25 V144.12 H281.37 V137.25 H274.51 Z M288.24,137.25 V144.12 H295.10 V137.25 H288.24 Z M301.96,137.25 V144.12 H308.82 V137.25 H301.96 Z M315.69,137.25 V144.12 H322.55 V137.25 H315.69 Z M322.55,137.25 V144.12 H329.41 V137.25 H322.55 Z M6.86,144.12 V150.98 H13.73 V144.12 H6.86 Z M13.73,144.12 V150.98 H20.59 V144.12 H13.73 Z M20.59,144.12 V150.98 H27.45 V144.12 H20.59 Z M48.04,144.12 V150.98 H54.90 V144.12 H48.04 Z M89.22,144.12 V150.98 H96.08 V144.12 H89.22 Z M96.08,144.12 V150.98 H102.94 V144.12 H96.08 Z M109.80,144.12 V150.98 H116.67 V144.12 H109.80 Z M157.84,144.12 V150.98 H164.71 V144.12 H157.84 Z M164.71,144.12 V150.98 H171.57 V144.12 H164.71 Z M171.57,144.12 V150.98 H178.43 V144.12 H171.57 Z M185.29,144.12 V150.98 H192.16 V144.12 H185.29 Z M192.16,144.12 V150.98 H199.02 V144.12 H192.16 Z M199.02,144.12 V150.98 H205.88 V144.12 H199.02 Z M212.75,144.12 V150.98 H219.61 V144.12 H212.75 Z M226.47,144.12 V150.98 H233.33 V144.12 H226.47 Z M233.33,144.12 V150.98 H240.20 V144.12 H233.33 Z M240.20,144.12 V150.98 H247.06 V144.12 H240.20 Z M247.06,144.12 V150.98 H253.92 V144.12 H247.06 Z M274.51,144.12 V150.98 H281.37 V144.12 H274.51 Z M281.37,144.12 V150.98 H288.24 V144.12 H281.37 Z M295.10,144.12 V150.98 H301.96 V144.12 H295.10 Z M301.96,144.12 V150.98 H308.82 V144.12 H301.96 Z M322.55,144.12 V150.98 H329.41 V144.12 H322.55 Z M329.41,144.12 V150.98 H336.27 V144.12 H329.41 Z M20.59,150.98 V157.84 H27.45 V150.98 H20.59 Z M54.90,150.98 V157.84 H61.76 V150.98 H54.90 Z M61.76,150.98 V157.84 H68.63 V150.98 H61.76 Z M68.63,150.98 V157.84 H75.49 V150.98 H68.63 Z M82.35,150.98 V157.84 H89.22 V150.98 H82.35 Z M89.22,150.98 V157.84 H96.08 V150.98 H89.22 Z M102.94,150.98 V157.84 H109.80 V150.98 H102.94 Z M116.67,150.98 V157.84 H123.53 V150.98 H116.67 Z M130.39,150.98 V157.84 H137.25 V150.98 H130.39 Z M144.12,150.98 V157.84 H150.98 V150.98 H144.12 Z M164.71,150.98 V157.84 H171.57 V150.98 H164.71 Z M171.57,150.98 V157.84 H178.43 V150.98 H171.57 Z M178.43,150.98 V157.84 H185.29 V150.98 H178.43 Z M192.16,150.98 V157.84 H199.02 V150.98 H192.16 Z M205.88,150.98 V157.84 H212.75 V150.98 H205.88 Z M212.75,150.98 V157.84 H219.61 V150.98 H212.75 Z M219.61,150.98 V157.84 H226.47 V150.98 H219.61 Z M267.65,150.98 V157.84 H274.51 V150.98 H267.65 Z M274.51,150.98 V157.84 H281.37 V150.98 H274.51 Z M288.24,150.98 V157.84 H295.10 V150.98 H288.24 Z M295.10,150.98 V157.84 H301.96 V150.98 H295.10 Z M308.82,150.98 V157.84 H315.69 V150.98 H308.82 Z M336.27,150.98 V157.84 H343.14 V150.98 H336.27 Z M6.86,157.84 V164.71 H13.73 V157.84 H6.86 Z M13.73,157.84 V164.71 H20.59 V157.84 H13.73 Z M34.31,157.84 V164.71 H41.18 V157.84 H34.31 Z M41.18,157.84 V164.71 H48.04 V157.84 H41.18 Z M48.04,157.84 V164.71 H54.90 V157.84 H48.04 Z M54.90,157.84 V164.71 H61.76 V157.84 H54.90 Z M61.76,157.84 V164.71 H68.63 V157.84 H61.76 Z M68.63,157.84 V164.71 H75.49 V157.84 H68.63 Z M75.49,157.84 V164.71 H82.35 V157.84 H75.49 Z M102.94,157.84 V164.71 H109.80 V157.84 H102.94 Z M109.80,157.84 V164.71 H116.67 V157.84 H109.80 Z M116.67,157.84 V164.71 H123.53 V157.84 H116.67 Z M123.53,157.84 V164.71 H130.39 V157.84 H123.53 Z M130.39,157.84 V164.71 H137.25 V157.84 H130.39 Z M157.84,157.84 V164.71 H164.71 V157.84 H157.84 Z M164.71,157.84 V164.71 H171.57 V157.84 H164.71 Z M171.57,157.84 V164.71 H178.43 V157.84 H171.57 Z M178.43,157.84 V164.71 H185.29 V157.84 H178.43 Z M185.29,157.84 V164.71 H192.16 V157.84 H185.29 Z M192.16,157.84 V164.71 H199.02 V157.84 H192.16 Z M199.02,157.84 V164.71 H205.88 V157.84 H199.02 Z M233.33,157.84 V164.71 H240.20 V157.84 H233.33 Z M247.06,157.84 V164.71 H253.92 V157.84 H247.06 Z M260.78,157.84 V164.71 H267.65 V157.84 H260.78 Z M281.37,157.84 V164.71 H288.24 V157.84 H281.37 Z M288.24,157.84 V164.71 H295.10 V157.84 H288.24 Z M295.10,157.84 V164.71 H301.96 V157.84 H295.10 Z M301.96,157.84 V164.71 H308.82 V157.84 H301.96 Z M308.82,157.84 V164.71 H315.69 V157.84 H308.82 Z M315.69,157.84 V164.71 H322.55 V157.84 H315.69 Z M13.73,164.71 V171.57 H20.59 V164.71 H13.73 Z M27.45,164.71 V171.57 H34.31 V164.71 H27.45 Z M34.31,164.71 V171.57 H41.18 V164.71 H34.31 Z M61.76,164.71 V171.57 H68.63 V164.71 H61.76 Z M82.35,164.71 V171.57 H89.22 V164.71 H82.35 Z M102.94,164.71 V171.57 H109.80 V164.71 H102.94 Z M109.80,164.71 V171.57 H116.67 V164.71 H109.80 Z M137.25,164.71 V171.57 H144.12 V164.71 H137.25 Z M144.12,164.71 V171.57 H150.98 V164.71 H144.12 Z M157.84,164.71 V171.57 H164.71 V164.71 H157.84 Z M185.29,164.71 V171.57 H192.16 V164.71 H185.29 Z M205.88,164.71 V171.57 H212.75 V164.71 H205.88 Z M226.47,164.71 V171.57 H233.33 V164.71 H226.47 Z M260.78,164.71 V171.57 H267.65 V164.71 H260.78 Z M267.65,164.71 V171.57 H274.51 V164.71 H267.65 Z M274.51,164.71 V171.57 H281.37 V164.71 H274.51 Z M281.37,164.71 V171.57 H288.24 V164.71 H281.37 Z M308.82,164.71 V171.57 H315.69 V164.71 H308.82 Z M329.41,164.71 V171.57 H336.27 V164.71 H329.41 Z M336.27,164.71 V171.57 H343.14 V164.71 H336.27 Z M13.73,171.57 V178.43 H20.59 V171.57 H13.73 Z M20.59,171.57 V178.43 H27.45 V171.57 H20.59 Z M34.31,171.57 V178.43 H41.18 V171.57 H34.31 Z M48.04,171.57 V178.43 H54.90 V171.57 H48.04 Z M61.76,171.57 V178.43 H68.63 V171.57 H61.76 Z M82.35,171.57 V178.43 H89.22 V171.57 H82.35 Z M89.22,171.57 V178.43 H96.08 V171.57 H89.22 Z M96.08,171.57 V178.43 H102.94 V171.57 H96.08 Z M116.67,171.57 V178.43 H123.53 V171.57 H116.67 Z M144.12,171.57 V178.43 H150.98 V171.57 H144.12 Z M150.98,171.57 V178.43 H157.84 V171.57 H150.98 Z M157.84,171.57 V178.43 H164.71 V171.57 H157.84 Z M171.57,171.57 V178.43 H178.43 V171.57 H171.57 Z M185.29,171.57 V178.43 H192.16 V171.57 H185.29 Z M192.16,171.57 V178.43 H199.02 V171.57 H192.16 Z M199.02,171.57 V178.43 H205.88 V171.57 H199.02 Z M205.88,171.57 V178.43 H212.75 V171.57 H205.88 Z M233.33,171.57 V178.43 H240.20 V171.57 H233.33 Z M281.37,171.57 V178.43 H288.24 V171.57 H281.37 Z M295.10,171.57 V178.43 H301.96 V171.57 H295.10 Z M308.82,171.57 V178.43 H315.69 V171.57 H308.82 Z M13.73,178.43 V185.29 H20.59 V178.43 H13.73 Z M20.59,178.43 V185.29 H27.45 V178.43 H20.59 Z M34.31,178.43 V185.29 H41.18 V178.43 H34.31 Z M61.76,178.43 V185.29 H68.63 V178.43 H61.76 Z M68.63,178.43 V185.29 H75.49 V178.43 H68.63 Z M82.35,178.43 V185.29 H89.22 V178.43 H82.35 Z M96.08,178.43 V185.29 H102.94 V178.43 H96.08 Z M102.94,178.43 V185.29 H109.80 V178.43 H102.94 Z M109.80,178.43 V185.29 H116.67 V178.43 H109.80 Z M116.67,178.43 V185.29 H123.53 V178.43 H116.67 Z M130.39,178.43 V185.29 H137.25 V178.43 H130.39 Z M137.25,178.43 V185.29 H144.12 V178.43 H137.25 Z M144.12,178.43 V185.29 H150.98 V178.43 H144.12 Z M150.98,178.43 V185.29 H157.84 V178.43 H150.98 Z M157.84,178.43 V185.29 H164.71 V178.43 H157.84 Z M185.29,178.43 V185.29 H192.16 V178.43 H185.29 Z M212.75,178.43 V185.29 H219.61 V178.43 H212.75 Z M219.61,178.43 V185.29 H226.47 V178.43 H219.61 Z M233.33,178.43 V185.29 H240.20 V178.43 H233.33 Z M240.20,178.43 V185.29 H247.06 V178.43 H240.20 Z M247.06,178.43 V185.29 H253.92 V178.43 H247.06 Z M260.78,178.43 V185.29 H267.65 V178.43 H260.78 Z M267.65,178.43 V185.29 H274.51 V178.43 H267.65 Z M274.51,178.43 V185.29 H281.37 V178.43 H274.51 Z M281.37,178.43 V185.29 H288.24 V178.43 H281.37 Z M308.82,178.43 V185.29 H315.69 V178.43 H308.82 Z M329.41,178.43 V185.29 H336.27 V178.43 H329.41 Z M6.86,185.29 V192.16 H13.73 V185.29 H6.86 Z M13.73,185.29 V192.16 H20.59 V185.29 H13.73 Z M34.31,185.29 V192.16 H41.18 V185.29 H34.31 Z M41.18,185.29 V192.16 H48.04 V185.29 H41.18 Z M48.04,185.29 V192.16 H54.90 V185.29 H48.04 Z M54.90,185.29 V192.16 H61.76 V185.29 H54.90 Z M61.76,185.29 V192.16 H68.63 V185.29 H61.76 Z M68.63,185.29 V192.16 H75.49 V185.29 H68.63 Z M75.49,185.29 V192.16 H82.35 V185.29 H75.49 Z M89.22,185.29 V192.16 H96.08 V185.29 H89.22 Z M96.08,185.29 V192.16 H102.94 V185.29 H96.08 Z M102.94,185.29 V192.16 H109.80 V185.29 H102.94 Z M116.67,185.29 V192.16 H123.53 V185.29 H116.67 Z M130.39,185.29 V192.16 H137.25 V185.29 H130.39 Z M137.25,185.29 V192.16 H144.12 V185.29 H137.25 Z M144.12,185.29 V192.16 H150.98 V185.29 H144.12 Z M157.84,185.29 V192.16 H164.71 V185.29 H157.84 Z M164.71,185.29 V192.16 H171.57 V185.29 H164.71 Z M171.57,185.29 V192.16 H178.43 V185.29 H171.57 Z M178.43,185.29 V192.16 H185.29 V185.29 H178.43 Z M185.29,185.29 V192.16 H192.16 V185.29 H185.29 Z M199.02,185.29 V192.16 H205.88 V185.29 H199.02 Z M233.33,185.29 V192.16 H240.20 V185.29 H233.33 Z M253.92,185.29 V192.16 H260.78 V185.29 H253.92 Z M267.65,185.29 V192.16 H274.51 V185.29 H267.65 Z M281.37,185.29 V192.16 H288.24 V185.29 H281.37 Z M288.24,185.29 V192.16 H295.10 V185.29 H288.24 Z M295.10,185.29 V192.16 H301.96 V185.29 H295.10 Z M301.96,185.29 V192.16 H308.82 V185.29 H301.96 Z M308.82,185.29 V192.16 H315.69 V185.29 H308.82 Z M315.69,185.29 V192.16 H322.55 V185.29 H315.69 Z M322.55,185.29 V192.16 H329.41 V185.29 H322.55 Z M329.41,185.29 V192.16 H336.27 V185.29 H329.41 Z M13.73,192.16 V199.02 H20.59 V192.16 H13.73 Z M27.45,192.16 V199.02 H34.31 V192.16 H27.45 Z M61.76,192.16 V199.02 H68.63 V192.16 H61.76 Z M89.22,192.16 V199.02 H96.08 V192.16 H89.22 Z M96.08,192.16 V199.02 H102.94 V192.16 H96.08 Z M109.80,192.16 V199.02 H116.67 V192.16 H109.80 Z M123.53,192.16 V199.02 H130.39 V192.16 H123.53 Z M150.98,192.16 V199.02 H157.84 V192.16 H150.98 Z M157.84,192.16 V199.02 H164.71 V192.16 H157.84 Z M164.71,192.16 V199.02 H171.57 V192.16 H164.71 Z M178.43,192.16 V199.02 H185.29 V192.16 H178.43 Z M199.02,192.16 V199.02 H205.88 V192.16 H199.02 Z M212.75,192.16 V199.02 H219.61 V192.16 H212.75 Z M226.47,192.16 V199.02 H233.33 V192.16 H226.47 Z M240.20,192.16 V199.02 H247.06 V192.16 H240.20 Z M247.06,192.16 V199.02 H253.92 V192.16 H247.06 Z M260.78,192.16 V199.02 H267.65 V192.16 H260.78 Z M274.51,192.16 V199.02 H281.37 V192.16 H274.51 Z M295.10,192.16 V199.02 H301.96 V192.16 H295.10 Z M336.27,192.16 V199.02 H343.14 V192.16 H336.27 Z M6.86,199.02 V205.88 H13.73 V199.02 H6.86 Z M27.45,199.02 V205.88 H34.31 V199.02 H27.45 Z M41.18,199.02 V205.88 H48.04 V199.02 H41.18 Z M48.04,199.02 V205.88 H54.90 V199.02 H48.04 Z M61.76,199.02 V205.88 H68.63 V199.02 H61.76 Z M68.63,199.02 V205.88 H75.49 V199.02 H68.63 Z M75.49,199.02 V205.88 H82.35 V199.02 H75.49 Z M96.08,199.02 V205.88 H102.94 V199.02 H96.08 Z M102.94,199.02 V205.88 H109.80 V199.02 H102.94 Z M123.53,199.02 V205.88 H130.39 V199.02 H123.53 Z M137.25,199.02 V205.88 H144.12 V199.02 H137.25 Z M144.12,199.02 V205.88 H150.98 V199.02 H144.12 Z M150.98,199.02 V205.88 H157.84 V199.02 H150.98 Z M171.57,199.02 V205.88 H178.43 V199.02 H171.57 Z M178.43,199.02 V205.88 H185.29 V199.02 H178.43 Z M185.29,199.02 V205.88 H192.16 V199.02 H185.29 Z M253.92,199.02 V205.88 H260.78 V199.02 H253.92 Z M260.78,199.02 V205.88 H267.65 V199.02 H260.78 Z M267.65,199.02 V205.88 H274.51 V199.02 H267.65 Z M274.51,199.02 V205.88 H281.37 V199.02 H274.51 Z M295.10,199.02 V205.88 H301.96 V199.02 H295.10 Z M301.96,199.02 V205.88 H308.82 V199.02 H301.96 Z M315.69,199.02 V205.88 H322.55 V199.02 H315.69 Z M322.55,199.02 V205.88 H329.41 V199.02 H322.55 Z M329.41,199.02 V205.88 H336.27 V199.02 H329.41 Z M13.73,205.88 V212.75 H20.59 V205.88 H13.73 Z M20.59,205.88 V212.75 H27.45 V205.88 H20.59 Z M27.45,205.88 V212.75 H34.31 V205.88 H27.45 Z M34.31,205.88 V212.75 H41.18 V205.88 H34.31 Z M61.76,205.88 V212.75 H68.63 V205.88 H61.76 Z M68.63,205.88 V212.75 H75.49 V205.88 H68.63 Z M75.49,205.88 V212.75 H82.35 V205.88 H75.49 Z M89.22,205.88 V212.75 H96.08 V205.88 H89.22 Z M96.08,205.88 V212.75 H102.94 V205.88 H96.08 Z M102.94,205.88 V212.75 H109.80 V205.88 H102.94 Z M116.67,205.88 V212.75 H123.53 V205.88 H116.67 Z M130.39,205.88 V212.75 H137.25 V205.88 H130.39 Z M137.25,205.88 V212.75 H144.12 V205.88 H137.25 Z M150.98,205.88 V212.75 H157.84 V205.88 H150.98 Z M185.29,205.88 V212.75 H192.16 V205.88 H185.29 Z M192.16,205.88 V212.75 H199.02 V205.88 H192.16 Z M205.88,205.88 V212.75 H212.75 V205.88 H205.88 Z M219.61,205.88 V212.75 H226.47 V205.88 H219.61 Z M233.33,205.88 V212.75 H240.20 V205.88 H233.33 Z M274.51,205.88 V212.75 H281.37 V205.88 H274.51 Z M288.24,205.88 V212.75 H295.10 V205.88 H288.24 Z M308.82,205.88 V212.75 H315.69 V205.88 H308.82 Z M315.69,205.88 V212.75 H322.55 V205.88 H315.69 Z M6.86,212.75 V219.61 H13.73 V212.75 H6.86 Z M27.45,212.75 V219.61 H34.31 V212.75 H27.45 Z M34.31,212.75 V219.61 H41.18 V212.75 H34.31 Z M48.04,212.75 V219.61 H54.90 V212.75 H48.04 Z M61.76,212.75 V219.61 H68.63 V212.75 H61.76 Z M68.63,212.75 V219.61 H75.49 V212.75 H68.63 Z M82.35,212.75 V219.61 H89.22 V212.75 H82.35 Z M89.22,212.75 V219.61 H96.08 V212.75 H89.22 Z M96.08,212.75 V219.61 H102.94 V212.75 H96.08 Z M109.80,212.75 V219.61 H116.67 V212.75 H109.80 Z M116.67,212.75 V219.61 H123.53 V212.75 H116.67 Z M123.53,212.75 V219.61 H130.39 V212.75 H123.53 Z M130.39,212.75 V219.61 H137.25 V212.75 H130.39 Z M150.98,212.75 V219.61 H157.84 V212.75 H150.98 Z M164.71,212.75 V219.61 H171.57 V212.75 H164.71 Z M178.43,212.75 V219.61 H185.29 V212.75 H178.43 Z M192.16,212.75 V219.61 H199.02 V212.75 H192.16 Z M205.88,212.75 V219.61 H212.75 V212.75 H205.88 Z M219.61,212.75 V219.61 H226.47 V212.75 H219.61 Z M233.33,212.75 V219.61 H240.20 V212.75 H233.33 Z M247.06,212.75 V219.61 H253.92 V212.75 H247.06 Z M260.78,212.75 V219.61 H267.65 V212.75 H260.78 Z M267.65,212.75 V219.61 H274.51 V212.75 H267.65 Z M295.10,212.75 V219.61 H301.96 V212.75 H295.10 Z M301.96,212.75 V219.61 H308.82 V212.75 H301.96 Z M315.69,212.75 V219.61 H322.55 V212.75 H315.69 Z M329.41,212.75 V219.61 H336.27 V212.75 H329.41 Z M336.27,212.75 V219.61 H343.14 V212.75 H336.27 Z M6.86,219.61 V226.47 H13.73 V219.61 H6.86 Z M13.73,219.61 V226.47 H20.59 V219.61 H13.73 Z M61.76,219.61 V226.47 H68.63 V219.61 H61.76 Z M75.49,219.61 V226.47 H82.35 V219.61 H75.49 Z M89.22,219.61 V226.47 H96.08 V219.61 H89.22 Z M96.08,219.61 V226.47 H102.94 V219.61 H96.08 Z M116.67,219.61 V226.47 H123.53 V219.61 H116.67 Z M171.57,219.61 V226.47 H178.43 V219.61 H171.57 Z M178.43,219.61 V226.47 H185.29 V219.61 H178.43 Z M185.29,219.61 V226.47 H192.16 V219.61 H185.29 Z M199.02,219.61 V226.47 H205.88 V219.61 H199.02 Z M205.88,219.61 V226.47 H212.75 V219.61 H205.88 Z M212.75,219.61 V226.47 H219.61 V219.61 H212.75 Z M219.61,219.61 V226.47 H226.47 V219.61 H219.61 Z M233.33,219.61 V226.47 H240.20 V219.61 H233.33 Z M253.92,219.61 V226.47 H260.78 V219.61 H253.92 Z M260.78,219.61 V226.47 H267.65 V219.61 H260.78 Z M274.51,219.61 V226.47 H281.37 V219.61 H274.51 Z M281.37,219.61 V226.47 H288.24 V219.61 H281.37 Z M295.10,219.61 V226.47 H301.96 V219.61 H295.10 Z M301.96,219.61 V226.47 H308.82 V219.61 H301.96 Z M308.82,219.61 V226.47 H315.69 V219.61 H308.82 Z M315.69,219.61 V226.47 H322.55 V219.61 H315.69 Z M322.55,219.61 V226.47 H329.41 V219.61 H322.55 Z M329.41,219.61 V226.47 H336.27 V219.61 H329.41 Z M336.27,219.61 V226.47 H343.14 V219.61 H336.27 Z M13.73,226.47 V233.33 H20.59 V226.47 H13.73 Z M20.59,226.47 V233.33 H27.45 V226.47 H20.59 Z M34.31,226.47 V233.33 H41.18 V226.47 H34.31 Z M48.04,226.47 V233.33 H54.90 V226.47 H48.04 Z M61.76,226.47 V233.33 H68.63 V226.47 H61.76 Z M68.63,226.47 V233.33 H75.49 V226.47 H68.63 Z M75.49,226.47 V233.33 H82.35 V226.47 H75.49 Z M82.35,226.47 V233.33 H89.22 V226.47 H82.35 Z M96.08,226.47 V233.33 H102.94 V226.47 H96.08 Z M109.80,226.47 V233.33 H116.67 V226.47 H109.80 Z M123.53,226.47 V233.33 H130.39 V226.47 H123.53 Z M137.25,226.47 V233.33 H144.12 V226.47 H137.25 Z M150.98,226.47 V233.33 H157.84 V226.47 H150.98 Z M192.16,226.47 V233.33 H199.02 V226.47 H192.16 Z M247.06,226.47 V233.33 H253.92 V226.47 H247.06 Z M267.65,226.47 V233.33 H274.51 V226.47 H267.65 Z M274.51,226.47 V233.33 H281.37 V226.47 H274.51 Z M301.96,226.47 V233.33 H308.82 V226.47 H301.96 Z M6.86,233.33 V240.20 H13.73 V233.33 H6.86 Z M13.73,233.33 V240.20 H20.59 V233.33 H13.73 Z M20.59,233.33 V240.20 H27.45 V233.33 H20.59 Z M54.90,233.33 V240.20 H61.76 V233.33 H54.90 Z M68.63,233.33 V240.20 H75.49 V233.33 H68.63 Z M75.49,233.33 V240.20 H82.35 V233.33 H75.49 Z M82.35,233.33 V240.20 H89.22 V233.33 H82.35 Z M102.94,233.33 V240.20 H109.80 V233.33 H102.94 Z M109.80,233.33 V240.20 H116.67 V233.33 H109.80 Z M123.53,233.33 V240.20 H130.39 V233.33 H123.53 Z M144.12,233.33 V240.20 H150.98 V233.33 H144.12 Z M157.84,233.33 V240.20 H164.71 V233.33 H157.84 Z M192.16,233.33 V240.20 H199.02 V233.33 H192.16 Z M212.75,233.33 V240.20 H219.61 V233.33 H212.75 Z M240.20,233.33 V240.20 H247.06 V233.33 H240.20 Z M281.37,233.33 V240.20 H288.24 V233.33 H281.37 Z M295.10,233.33 V240.20 H301.96 V233.33 H295.10 Z M301.96,233.33 V240.20 H308.82 V233.33 H301.96 Z M308.82,233.33 V240.20 H315.69 V233.33 H308.82 Z M336.27,233.33 V240.20 H343.14 V233.33 H336.27 Z M13.73,240.20 V247.06 H20.59 V240.20 H13.73 Z M41.18,240.20 V247.06 H48.04 V240.20 H41.18 Z M48.04,240.20 V247.06 H54.90 V240.20 H48.04 Z M61.76,240.20 V247.06 H68.63 V240.20 H61.76 Z M75.49,240.20 V247.06 H82.35 V240.20 H75.49 Z M82.35,240.20 V247.06 H89.22 V240.20 H82.35 Z M89.22,240.20 V247.06 H96.08 V240.20 H89.22 Z M102.94,240.20 V247.06 H109.80 V240.20 H102.94 Z M157.84,240.20 V247.06 H164.71 V240.20 H157.84 Z M164.71,240.20 V247.06 H171.57 V240.20 H164.71 Z M192.16,240.20 V247.06 H199.02 V240.20 H192.16 Z M212.75,240.20 V247.06 H219.61 V240.20 H212.75 Z M219.61,240.20 V247.06 H226.47 V240.20 H219.61 Z M240.20,240.20 V247.06 H247.06 V240.20 H240.20 Z M267.65,240.20 V247.06 H274.51 V240.20 H267.65 Z M274.51,240.20 V247.06 H281.37 V240.20 H274.51 Z M281.37,240.20 V247.06 H288.24 V240.20 H281.37 Z M288.24,240.20 V247.06 H295.10 V240.20 H288.24 Z M301.96,240.20 V247.06 H308.82 V240.20 H301.96 Z M322.55,240.20 V247.06 H329.41 V240.20 H322.55 Z M6.86,247.06 V253.92 H13.73 V247.06 H6.86 Z M13.73,247.06 V253.92 H20.59 V247.06 H13.73 Z M20.59,247.06 V253.92 H27.45 V247.06 H20.59 Z M27.45,247.06 V253.92 H34.31 V247.06 H27.45 Z M34.31,247.06 V253.92 H41.18 V247.06 H34.31 Z M61.76,247.06 V253.92 H68.63 V247.06 H61.76 Z M75.49,247.06 V253.92 H82.35 V247.06 H75.49 Z M89.22,247.06 V253.92 H96.08 V247.06 H89.22 Z M102.94,247.06 V253.92 H109.80 V247.06 H102.94 Z M109.80,247.06 V253.92 H116.67 V247.06 H109.80 Z M116.67,247.06 V253.92 H123.53 V247.06 H116.67 Z M123.53,247.06 V253.92 H130.39 V247.06 H123.53 Z M130.39,247.06 V253.92 H137.25 V247.06 H130.39 Z M144.12,247.06 V253.92 H150.98 V247.06 H144.12 Z M157.84,247.06 V253.92 H164.71 V247.06 H157.84 Z M171.57,247.06 V253.92 H178.43 V247.06 H171.57 Z M178.43,247.06 V253.92 H185.29 V247.06 H178.43 Z M199.02,247.06 V253.92 H205.88 V247.06 H199.02 Z M205.88,247.06 V253.92 H212.75 V247.06 H205.88 Z M212.75,247.06 V253.92 H219.61 V247.06 H212.75 Z M219.61,247.06 V253.92 H226.47 V247.06 H219.61 Z M233.33,247.06 V253.92 H240.20 V247.06 H233.33 Z M253.92,247.06 V253.92 H260.78 V247.06 H253.92 Z M260.78,247.06 V253.92 H267.65 V247.06 H260.78 Z M267.65,247.06 V253.92 H274.51 V247.06 H267.65 Z M274.51,247.06 V253.92 H281.37 V247.06 H274.51 Z M281.37,247.06 V253.92 H288.24 V247.06 H281.37 Z M288.24,247.06 V253.92 H295.10 V247.06 H288.24 Z M295.10,247.06 V253.92 H301.96 V247.06 H295.10 Z M308.82,247.06 V253.92 H315.69 V247.06 H308.82 Z M315.69,247.06 V253.92 H322.55 V247.06 H315.69 Z M322.55,247.06 V253.92 H329.41 V247.06 H322.55 Z M329.41,247.06 V253.92 H336.27 V247.06 H329.41 Z M336.27,247.06 V253.92 H343.14 V247.06 H336.27 Z M6.86,253.92 V260.78 H13.73 V253.92 H6.86 Z M13.73,253.92 V260.78 H20.59 V253.92 H13.73 Z M27.45,253.92 V260.78 H34.31 V253.92 H27.45 Z M34.31,253.92 V260.78 H41.18 V253.92 H34.31 Z M48.04,253.92 V260.78 H54.90 V253.92 H48.04 Z M54.90,253.92 V260.78 H61.76 V253.92 H54.90 Z M89.22,253.92 V260.78 H96.08 V253.92 H89.22 Z M116.67,253.92 V260.78 H123.53 V253.92 H116.67 Z M123.53,253.92 V260.78 H130.39 V253.92 H123.53 Z M130.39,253.92 V260.78 H137.25 V253.92 H130.39 Z M144.12,253.92 V260.78 H150.98 V253.92 H144.12 Z M150.98,253.92 V260.78 H157.84 V253.92 H150.98 Z M171.57,253.92 V260.78 H178.43 V253.92 H171.57 Z M185.29,253.92 V260.78 H192.16 V253.92 H185.29 Z M199.02,253.92 V260.78 H205.88 V253.92 H199.02 Z M212.75,253.92 V260.78 H219.61 V253.92 H212.75 Z M219.61,253.92 V260.78 H226.47 V253.92 H219.61 Z M226.47,253.92 V260.78 H233.33 V253.92 H226.47 Z M233.33,253.92 V260.78 H240.20 V253.92 H233.33 Z M240.20,253.92 V260.78 H247.06 V253.92 H240.20 Z M253.92,253.92 V260.78 H260.78 V253.92 H253.92 Z M281.37,253.92 V260.78 H288.24 V253.92 H281.37 Z M301.96,253.92 V260.78 H308.82 V253.92 H301.96 Z M308.82,253.92 V260.78 H315.69 V253.92 H308.82 Z M315.69,253.92 V260.78 H322.55 V253.92 H315.69 Z M336.27,253.92 V260.78 H343.14 V253.92 H336.27 Z M27.45,260.78 V267.65 H34.31 V260.78 H27.45 Z M34.31,260.78 V267.65 H41.18 V260.78 H34.31 Z M41.18,260.78 V267.65 H48.04 V260.78 H41.18 Z M54.90,260.78 V267.65 H61.76 V260.78 H54.90 Z M61.76,260.78 V267.65 H68.63 V260.78 H61.76 Z M68.63,260.78 V267.65 H75.49 V260.78 H68.63 Z M82.35,260.78 V267.65 H89.22 V260.78 H82.35 Z M89.22,260.78 V267.65 H96.08 V260.78 H89.22 Z M96.08,260.78 V267.65 H102.94 V260.78 H96.08 Z M116.67,260.78 V267.65 H123.53 V260.78 H116.67 Z M130.39,260.78 V267.65 H137.25 V260.78 H130.39 Z M137.25,260.78 V267.65 H144.12 V260.78 H137.25 Z M144.12,260.78 V267.65 H150.98 V260.78 H144.12 Z M164.71,260.78 V267.65 H171.57 V260.78 H164.71 Z M171.57,260.78 V267.65 H178.43 V260.78 H171.57 Z M178.43,260.78 V267.65 H185.29 V260.78 H178.43 Z M185.29,260.78 V267.65 H192.16 V260.78 H185.29 Z M199.02,260.78 V267.65 H205.88 V260.78 H199.02 Z M219.61,260.78 V267.65 H226.47 V260.78 H219.61 Z M226.47,260.78 V267.65 H233.33 V260.78 H226.47 Z M233.33,260.78 V267.65 H240.20 V260.78 H233.33 Z M247.06,260.78 V267.65 H253.92 V260.78 H247.06 Z M260.78,260.78 V267.65 H267.65 V260.78 H260.78 Z M274.51,260.78 V267.65 H281.37 V260.78 H274.51 Z M288.24,260.78 V267.65 H295.10 V260.78 H288.24 Z M301.96,260.78 V267.65 H308.82 V260.78 H301.96 Z M308.82,260.78 V267.65 H315.69 V260.78 H308.82 Z M315.69,260.78 V267.65 H322.55 V260.78 H315.69 Z M13.73,267.65 V274.51 H20.59 V267.65 H13.73 Z M41.18,267.65 V274.51 H48.04 V267.65 H41.18 Z M48.04,267.65 V274.51 H54.90 V267.65 H48.04 Z M54.90,267.65 V274.51 H61.76 V267.65 H54.90 Z M61.76,267.65 V274.51 H68.63 V267.65 H61.76 Z M75.49,267.65 V274.51 H82.35 V267.65 H75.49 Z M82.35,267.65 V274.51 H89.22 V267.65 H82.35 Z M137.25,267.65 V274.51 H144.12 V267.65 H137.25 Z M144.12,267.65 V274.51 H150.98 V267.65 H144.12 Z M157.84,267.65 V274.51 H164.71 V267.65 H157.84 Z M185.29,267.65 V274.51 H192.16 V267.65 H185.29 Z M192.16,267.65 V274.51 H199.02 V267.65 H192.16 Z M212.75,267.65 V274.51 H219.61 V267.65 H212.75 Z M219.61,267.65 V274.51 H226.47 V267.65 H219.61 Z M240.20,267.65 V274.51 H247.06 V267.65 H240.20 Z M267.65,267.65 V274.51 H274.51 V267.65 H267.65 Z M274.51,267.65 V274.51 H281.37 V267.65 H274.51 Z M281.37,267.65 V274.51 H288.24 V267.65 H281.37 Z M288.24,267.65 V274.51 H295.10 V267.65 H288.24 Z M301.96,267.65 V274.51 H308.82 V267.65 H301.96 Z M308.82,267.65 V274.51 H315.69 V267.65 H308.82 Z M322.55,267.65 V274.51 H329.41 V267.65 H322.55 Z M336.27,267.65 V274.51 H343.14 V267.65 H336.27 Z M13.73,274.51 V281.37 H20.59 V274.51 H13.73 Z M20.59,274.51 V281.37 H27.45 V274.51 H20.59 Z M27.45,274.51 V281.37 H34.31 V274.51 H27.45 Z M89.22,274.51 V281.37 H96.08 V274.51 H89.22 Z M96.08,274.51 V281.37 H102.94 V274.51 H96.08 Z M102.94,274.51 V281.37 H109.80 V274.51 H102.94 Z M109.80,274.51 V281.37 H116.67 V274.51 H109.80 Z M116.67,274.51 V281.37 H123.53 V274.51 H116.67 Z M130.39,274.51 V281.37 H137.25 V274.51 H130.39 Z M144.12,274.51 V281.37 H150.98 V274.51 H144.12 Z M150.98,274.51 V281.37 H157.84 V274.51 H150.98 Z M157.84,274.51 V281.37 H164.71 V274.51 H157.84 Z M164.71,274.51 V281.37 H171.57 V274.51 H164.71 Z M171.57,274.51 V281.37 H178.43 V274.51 H171.57 Z M185.29,274.51 V281.37 H192.16 V274.51 H185.29 Z M199.02,274.51 V281.37 H205.88 V274.51 H199.02 Z M226.47,274.51 V281.37 H233.33 V274.51 H226.47 Z M233.33,274.51 V281.37 H240.20 V274.51 H233.33 Z M240.20,274.51 V281.37 H247.06 V274.51 H240.20 Z M253.92,274.51 V281.37 H260.78 V274.51 H253.92 Z M267.65,274.51 V281.37 H274.51 V274.51 H267.65 Z M281.37,274.51 V281.37 H288.24 V274.51 H281.37 Z M301.96,274.51 V281.37 H308.82 V274.51 H301.96 Z M308.82,274.51 V281.37 H315.69 V274.51 H308.82 Z M322.55,274.51 V281.37 H329.41 V274.51 H322.55 Z M336.27,274.51 V281.37 H343.14 V274.51 H336.27 Z M6.86,281.37 V288.24 H13.73 V281.37 H6.86 Z M13.73,281.37 V288.24 H20.59 V281.37 H13.73 Z M20.59,281.37 V288.24 H27.45 V281.37 H20.59 Z M48.04,281.37 V288.24 H54.90 V281.37 H48.04 Z M61.76,281.37 V288.24 H68.63 V281.37 H61.76 Z M75.49,281.37 V288.24 H82.35 V281.37 H75.49 Z M82.35,281.37 V288.24 H89.22 V281.37 H82.35 Z M89.22,281.37 V288.24 H96.08 V281.37 H89.22 Z M102.94,281.37 V288.24 H109.80 V281.37 H102.94 Z M109.80,281.37 V288.24 H116.67 V281.37 H109.80 Z M123.53,281.37 V288.24 H130.39 V281.37 H123.53 Z M130.39,281.37 V288.24 H137.25 V281.37 H130.39 Z M137.25,281.37 V288.24 H144.12 V281.37 H137.25 Z M144.12,281.37 V288.24 H150.98 V281.37 H144.12 Z M157.84,281.37 V288.24 H164.71 V281.37 H157.84 Z M164.71,281.37 V288.24 H171.57 V281.37 H164.71 Z M171.57,281.37 V288.24 H178.43 V281.37 H171.57 Z M178.43,281.37 V288.24 H185.29 V281.37 H178.43 Z M185.29,281.37 V288.24 H192.16 V281.37 H185.29 Z M192.16,281.37 V288.24 H199.02 V281.37 H192.16 Z M205.88,281.37 V288.24 H212.75 V281.37 H205.88 Z M212.75,281.37 V288.24 H219.61 V281.37 H212.75 Z M219.61,281.37 V288.24 H226.47 V281.37 H219.61 Z M226.47,281.37 V288.24 H233.33 V281.37 H226.47 Z M233.33,281.37 V288.24 H240.20 V281.37 H233.33 Z M247.06,281.37 V288.24 H253.92 V281.37 H247.06 Z M253.92,281.37 V288.24 H260.78 V281.37 H253.92 Z M267.65,281.37 V288.24 H274.51 V281.37 H267.65 Z M281.37,281.37 V288.24 H288.24 V281.37 H281.37 Z M288.24,281.37 V288.24 H295.10 V281.37 H288.24 Z M295.10,281.37 V288.24 H301.96 V281.37 H295.10 Z M301.96,281.37 V288.24 H308.82 V281.37 H301.96 Z M308.82,281.37 V288.24 H315.69 V281.37 H308.82 Z M68.63,288.24 V295.10 H75.49 V288.24 H68.63 Z M89.22,288.24 V295.10 H96.08 V288.24 H89.22 Z M96.08,288.24 V295.10 H102.94 V288.24 H96.08 Z M102.94,288.24 V295.10 H109.80 V288.24 H102.94 Z M109.80,288.24 V295.10 H116.67 V288.24 H109.80 Z M123.53,288.24 V295.10 H130.39 V288.24 H123.53 Z M150.98,288.24 V295.10 H157.84 V288.24 H150.98 Z M157.84,288.24 V295.10 H164.71 V288.24 H157.84 Z M185.29,288.24 V295.10 H192.16 V288.24 H185.29 Z M192.16,288.24 V295.10 H199.02 V288.24 H192.16 Z M205.88,288.24 V295.10 H212.75 V288.24 H205.88 Z M212.75,288.24 V295.10 H219.61 V288.24 H212.75 Z M226.47,288.24 V295.10 H233.33 V288.24 H226.47 Z M240.20,288.24 V295.10 H247.06 V288.24 H240.20 Z M253.92,288.24 V295.10 H260.78 V288.24 H253.92 Z M260.78,288.24 V295.10 H267.65 V288.24 H260.78 Z M267.65,288.24 V295.10 H274.51 V288.24 H267.65 Z M281.37,288.24 V295.10 H288.24 V288.24 H281.37 Z M308.82,288.24 V295.10 H315.69 V288.24 H308.82 Z M315.69,288.24 V295.10 H322.55 V288.24 H315.69 Z M329.41,288.24 V295.10 H336.27 V288.24 H329.41 Z M6.86,295.10 V301.96 H13.73 V295.10 H6.86 Z M13.73,295.10 V301.96 H20.59 V295.10 H13.73 Z M20.59,295.10 V301.96 H27.45 V295.10 H20.59 Z M27.45,295.10 V301.96 H34.31 V295.10 H27.45 Z M34.31,295.10 V301.96 H41.18 V295.10 H34.31 Z M41.18,295.10 V301.96 H48.04 V295.10 H41.18 Z M48.04,295.10 V301.96 H54.90 V295.10 H48.04 Z M68.63,295.10 V301.96 H75.49 V295.10 H68.63 Z M89.22,295.10 V301.96 H96.08 V295.10 H89.22 Z M96.08,295.10 V301.96 H102.94 V295.10 H96.08 Z M130.39,295.10 V301.96 H137.25 V295.10 H130.39 Z M137.25,295.10 V301.96 H144.12 V295.10 H137.25 Z M144.12,295.10 V301.96 H150.98 V295.10 H144.12 Z M150.98,295.10 V301.96 H157.84 V295.10 H150.98 Z M157.84,295.10 V301.96 H164.71 V295.10 H157.84 Z M171.57,295.10 V301.96 H178.43 V295.10 H171.57 Z M185.29,295.10 V301.96 H192.16 V295.10 H185.29 Z M199.02,295.10 V301.96 H205.88 V295.10 H199.02 Z M212.75,295.10 V301.96 H219.61 V295.10 H212.75 Z M219.61,295.10 V301.96 H226.47 V295.10 H219.61 Z M226.47,295.10 V301.96 H233.33 V295.10 H226.47 Z M240.20,295.10 V301.96 H247.06 V295.10 H240.20 Z M267.65,295.10 V301.96 H274.51 V295.10 H267.65 Z M281.37,295.10 V301.96 H288.24 V295.10 H281.37 Z M295.10,295.10 V301.96 H301.96 V295.10 H295.10 Z M308.82,295.10 V301.96 H315.69 V295.10 H308.82 Z M315.69,295.10 V301.96 H322.55 V295.10 H315.69 Z M322.55,295.10 V301.96 H329.41 V295.10 H322.55 Z M329.41,295.10 V301.96 H336.27 V295.10 H329.41 Z M6.86,301.96 V308.82 H13.73 V301.96 H6.86 Z M48.04,301.96 V308.82 H54.90 V301.96 H48.04 Z M61.76,301.96 V308.82 H68.63 V301.96 H61.76 Z M75.49,301.96 V308.82 H82.35 V301.96 H75.49 Z M89.22,301.96 V308.82 H96.08 V301.96 H89.22 Z M96.08,301.96 V308.82 H102.94 V301.96 H96.08 Z M109.80,301.96 V308.82 H116.67 V301.96 H109.80 Z M116.67,301.96 V308.82 H123.53 V301.96 H116.67 Z M137.25,301.96 V308.82 H144.12 V301.96 H137.25 Z M144.12,301.96 V308.82 H150.98 V301.96 H144.12 Z M157.84,301.96 V308.82 H164.71 V301.96 H157.84 Z M185.29,301.96 V308.82 H192.16 V301.96 H185.29 Z M192.16,301.96 V308.82 H199.02 V301.96 H192.16 Z M199.02,301.96 V308.82 H205.88 V301.96 H199.02 Z M212.75,301.96 V308.82 H219.61 V301.96 H212.75 Z M233.33,301.96 V308.82 H240.20 V301.96 H233.33 Z M240.20,301.96 V308.82 H247.06 V301.96 H240.20 Z M247.06,301.96 V308.82 H253.92 V301.96 H247.06 Z M253.92,301.96 V308.82 H260.78 V301.96 H253.92 Z M260.78,301.96 V308.82 H267.65 V301.96 H260.78 Z M267.65,301.96 V308.82 H274.51 V301.96 H267.65 Z M274.51,301.96 V308.82 H281.37 V301.96 H274.51 Z M281.37,301.96 V308.82 H288.24 V301.96 H281.37 Z M308.82,301.96 V308.82 H315.69 V301.96 H308.82 Z M322.55,301.96 V308.82 H329.41 V301.96 H322.55 Z M329.41,301.96 V308.82 H336.27 V301.96 H329.41 Z M6.86,308.82 V315.69 H13.73 V308.82 H6.86 Z M20.59,308.82 V315.69 H27.45 V308.82 H20.59 Z M27.45,308.82 V315.69 H34.31 V308.82 H27.45 Z M34.31,308.82 V315.69 H41.18 V308.82 H34.31 Z M48.04,308.82 V315.69 H54.90 V308.82 H48.04 Z M61.76,308.82 V315.69 H68.63 V308.82 H61.76 Z M82.35,308.82 V315.69 H89.22 V308.82 H82.35 Z M137.25,308.82 V315.69 H144.12 V308.82 H137.25 Z M157.84,308.82 V315.69 H164.71 V308.82 H157.84 Z M164.71,308.82 V315.69 H171.57 V308.82 H164.71 Z M171.57,308.82 V315.69 H178.43 V308.82 H171.57 Z M178.43,308.82 V315.69 H185.29 V308.82 H178.43 Z M185.29,308.82 V315.69 H192.16 V308.82 H185.29 Z M226.47,308.82 V315.69 H233.33 V308.82 H226.47 Z M240.20,308.82 V315.69 H247.06 V308.82 H240.20 Z M253.92,308.82 V315.69 H260.78 V308.82 H253.92 Z M281.37,308.82 V315.69 H288.24 V308.82 H281.37 Z M288.24,308.82 V315.69 H295.10 V308.82 H288.24 Z M295.10,308.82 V315.69 H301.96 V308.82 H295.10 Z M301.96,308.82 V315.69 H308.82 V308.82 H301.96 Z M308.82,308.82 V315.69 H315.69 V308.82 H308.82 Z M315.69,308.82 V315.69 H322.55 V308.82 H315.69 Z M329.41,308.82 V315.69 H336.27 V308.82 H329.41 Z M6.86,315.69 V322.55 H13.73 V315.69 H6.86 Z M20.59,315.69 V322.55 H27.45 V315.69 H20.59 Z M27.45,315.69 V322.55 H34.31 V315.69 H27.45 Z M34.31,315.69 V322.55 H41.18 V315.69 H34.31 Z M48.04,315.69 V322.55 H54.90 V315.69 H48.04 Z M82.35,315.69 V322.55 H89.22 V315.69 H82.35 Z M89.22,315.69 V322.55 H96.08 V315.69 H89.22 Z M96.08,315.69 V322.55 H102.94 V315.69 H96.08 Z M109.80,315.69 V322.55 H116.67 V315.69 H109.80 Z M123.53,315.69 V322.55 H130.39 V315.69 H123.53 Z M130.39,315.69 V322.55 H137.25 V315.69 H130.39 Z M171.57,315.69 V322.55 H178.43 V315.69 H171.57 Z M205.88,315.69 V322.55 H212.75 V315.69 H205.88 Z M267.65,315.69 V322.55 H274.51 V315.69 H267.65 Z M281.37,315.69 V322.55 H288.24 V315.69 H281.37 Z M295.10,315.69 V322.55 H301.96 V315.69 H295.10 Z M315.69,315.69 V322.55 H322.55 V315.69 H315.69 Z M6.86,322.55 V329.41 H13.73 V322.55 H6.86 Z M20.59,322.55 V329.41 H27.45 V322.55 H20.59 Z M27.45,322.55 V329.41 H34.31 V322.55 H27.45 Z M34.31,322.55 V329.41 H41.18 V322.55 H34.31 Z M48.04,322.55 V329.41 H54.90 V322.55 H48.04 Z M75.49,322.55 V329.41 H82.35 V322.55 H75.49 Z M89.22,322.55 V329.41 H96.08 V322.55 H89.22 Z M123.53,322.55 V329.41 H130.39 V322.55 H123.53 Z M144.12,322.55 V329.41 H150.98 V322.55 H144.12 Z M150.98,322.55 V329.41 H157.84 V322.55 H150.98 Z M157.84,322.55 V329.41 H164.71 V322.55 H157.84 Z M178.43,322.55 V329.41 H185.29 V322.55 H178.43 Z M185.29,322.55 V329.41 H192.16 V322.55 H185.29 Z M226.47,322.55 V329.41 H233.33 V322.55 H226.47 Z M233.33,322.55 V329.41 H240.20 V322.55 H233.33 Z M253.92,322.55 V329.41 H260.78 V322.55 H253.92 Z M260.78,322.55 V329.41 H267.65 V322.55 H260.78 Z M267.65,322.55 V329.41 H274.51 V322.55 H267.65 Z M274.51,322.55 V329.41 H281.37 V322.55 H274.51 Z M308.82,322.55 V329.41 H315.69 V322.55 H308.82 Z M322.55,322.55 V329.41 H329.41 V322.55 H322.55 Z M6.86,329.41 V336.27 H13.73 V329.41 H6.86 Z M48.04,329.41 V336.27 H54.90 V329.41 H48.04 Z M75.49,329.41 V336.27 H82.35 V329.41 H75.49 Z M82.35,329.41 V336.27 H89.22 V329.41 H82.35 Z M89.22,329.41 V336.27 H96.08 V329.41 H89.22 Z M116.67,329.41 V336.27 H123.53 V329.41 H116.67 Z M137.25,329.41 V336.27 H144.12 V329.41 H137.25 Z M144.12,329.41 V336.27 H150.98 V329.41 H144.12 Z M157.84,329.41 V336.27 H164.71 V329.41 H157.84 Z M164.71,329.41 V336.27 H171.57 V329.41 H164.71 Z M171.57,329.41 V336.27 H178.43 V329.41 H171.57 Z M185.29,329.41 V336.27 H192.16 V329.41 H185.29 Z M199.02,329.41 V336.27 H205.88 V329.41 H199.02 Z M212.75,329.41 V336.27 H219.61 V329.41 H212.75 Z M226.47,329.41 V336.27 H233.33 V329.41 H226.47 Z M260.78,329.41 V336.27 H267.65 V329.41 H260.78 Z M295.10,329.41 V336.27 H301.96 V329.41 H295.10 Z M301.96,329.41 V336.27 H308.82 V329.41 H301.96 Z M308.82,329.41 V336.27 H315.69 V329.41 H308.82 Z M315.69,329.41 V336.27 H322.55 V329.41 H315.69 Z M322.55,329.41 V336.27 H329.41 V329.41 H322.55 Z M336.27,329.41 V336.27 H343.14 V329.41 H336.27 Z M6.86,336.27 V343.14 H13.73 V336.27 H6.86 Z M13.73,336.27 V343.14 H20.59 V336.27 H13.73 Z M20.59,336.27 V343.14 H27.45 V336.27 H20.59 Z M27.45,336.27 V343.14 H34.31 V336.27 H27.45 Z M34.31,336.27 V343.14 H41.18 V336.27 H34.31 Z M41.18,336.27 V343.14 H48.04 V336.27 H41.18 Z M48.04,336.27 V343.14 H54.90 V336.27 H48.04 Z M61.76,336.27 V343.14 H68.63 V336.27 H61.76 Z M75.49,336.27 V343.14 H82.35 V336.27 H75.49 Z M82.35,336.27 V343.14 H89.22 V336.27 H82.35 Z M102.94,336.27 V343.14 H109.80 V336.27 H102.94 Z M109.80,336.27 V343.14 H116.67 V336.27 H109.80 Z M116.67,336.27 V343.14 H123.53 V336.27 H116.67 Z M130.39,336.27 V343.14 H137.25 V336.27 H130.39 Z M137.25,336.27 V343.14 H144.12 V336.27 H137.25 Z M157.84,336.27 V343.14 H164.71 V336.27 H157.84 Z M171.57,336.27 V343.14 H178.43 V336.27 H171.57 Z M178.43,336.27 V343.14 H185.29 V336.27 H178.43 Z M212.75,336.27 V343.14 H219.61 V336.27 H212.75 Z M240.20,336.27 V343.14 H247.06 V336.27 H240.20 Z M253.92,336.27 V343.14 H260.78 V336.27 H253.92 Z M267.65,336.27 V343.14 H274.51 V336.27 H267.65 Z M281.37,336.27 V343.14 H288.24 V336.27 H281.37 Z M295.10,336.27 V343.14 H301.96 V336.27 H295.10 Z M315.69,336.27 V343.14 H322.55 V336.27 H315.69 Z M322.55,336.27 V343.14 H329.41 V336.27 H322.55 Z M329.41,336.27 V343.14 H336.27 V336.27 H329.41 Z M336.27,336.27 V343.14 H343.14 V336.27 H336.27 Z "></path></svg><circle fill="#fff" stroke-width="6px" stroke="#000" cx="175" cy="175" r="65.75"></circle><svg x="117.25" y="117.25" width="115.5" height="115.5" viewBox="0 0 24 24" fill="#000"><path d="M12 0c-6.626 0-12 5.373-12 12 0 5.302 3.438 9.8 8.207 11.387.599.111.793-.261.793-.577v-2.234c-3.338.726-4.033-1.416-4.033-1.416-.546-1.387-1.333-1.756-1.333-1.756-1.089-.745.083-.729.083-.729 1.205.084 1.839 1.237 1.839 1.237 1.07 1.834 2.807 1.304 3.492.997.107-.775.418-1.305.762-1.604-2.665-.305-5.467-1.334-5.467-5.931 0-1.311.469-2.381 1.236-3.221-.124-.303-.535-1.524.117-3.176 0 0 1.008-.322 3.301 1.23.957-.266 1.983-.399 3.003-.404 1.02.005 2.047.138 3.006.404 2.291-1.552 3.297-1.23 3.297-1.23.653 1.653.242 2.874.118 3.176.77.84 1.235 1.911 1.235 3.221 0 4.609-2.807 5.624-5.479 5.921.43.372.823 1.102.823 2.222v3.293c0 .319.192.694.801.576 4.765-1.589 8.199-6.086 8.199-11.386 0-6.627-5.373-12-12-12z"></path></svg></svg>